<?xml version="1.0" standalone="no"?>
<!DOCTYPE svg PUBLIC "-//W3C//DTD SVG 20010904//EN"
 "http://www.w3.org/TR/2001/REC-SVG-20010904/DTD/svg10.dtd">
<svg version="1.0" xmlns="http://www.w3.org/2000/svg"
 width="48.000000pt" height="48.000000pt" viewBox="0 0 48.000000 48.000000"
 preserveAspectRatio="xMidYMid meet">

<g transform="translate(0.000000,48.000000) scale(0.100000,-0.100000)"
fill="#000000" stroke="none">
<path d="M128 445 c-155 -81 -171 -296 -30 -402 54 -41 82 -43 82 -8 0 20 -5
25 -25 25 -23 0 -37 10 -74 55 -23 28 -2 30 27 2 32 -30 67 -35 76 -11 4 9 5
18 4 19 -2 1 -18 7 -36 15 -18 7 -39 22 -47 34 -17 23 -20 112 -5 121 6 3 10
22 10 42 0 34 1 35 28 29 51 -13 166 -12 193 1 32 15 39 9 39 -33 0 -18 5 -36
10 -39 6 -3 10 -29 10 -56 0 -56 -26 -93 -75 -105 -17 -4 -24 -11 -21 -21 3
-8 6 -35 6 -59 0 -55 20 -58 82 -11 142 106 124 323 -32 402 -67 34 -156 34
-222 0z"/>
</g>
</svg>
