<?xml version="1.0" standalone="no"?>
<!DOCTYPE svg PUBLIC "-//W3C//DTD SVG 20010904//EN"
 "http://www.w3.org/TR/2001/REC-SVG-20010904/DTD/svg10.dtd">
<svg version="1.0" xmlns="http://www.w3.org/2000/svg"
 width="48.000000pt" height="48.000000pt" viewBox="0 0 48.000000 48.000000"
 preserveAspectRatio="xMidYMid meet">

<g transform="translate(0.000000,48.000000) scale(0.100000,-0.100000)"
fill="#000000" stroke="none">
<path d="M20 460 c-19 -19 -20 -33 -20 -220 0 -187 1 -201 20 -220 19 -19 33
-20 220 -20 187 0 201 1 220 20 19 19 20 33 20 220 0 187 -1 201 -20 220 -19
19 -33 20 -220 20 -187 0 -201 -1 -220 -20z m120 -60 c11 -11 20 -24 20 -30 0
-13 -37 -50 -50 -50 -14 0 -50 37 -50 52 0 16 31 48 47 48 7 0 22 -9 33 -20z
m247 -114 c27 -23 28 -27 28 -123 l0 -98 -37 -3 -38 -3 0 75 c0 83 -16 114
-50 96 -25 -13 -30 -32 -30 -106 l0 -64 -35 0 -35 0 0 120 0 120 35 0 c19 0
35 -5 35 -11 0 -5 10 -3 22 5 32 23 73 20 105 -8z m-237 -106 l0 -120 -40 0
-40 0 0 120 0 120 40 0 40 0 0 -120z"/>
</g>
</svg>
