<?xml version="1.0" standalone="no"?>
<!DOCTYPE svg PUBLIC "-//W3C//DTD SVG 20010904//EN"
 "http://www.w3.org/TR/2001/REC-SVG-20010904/DTD/svg10.dtd">
<svg version="1.0" xmlns="http://www.w3.org/2000/svg"
 width="48.000000pt" height="48.000000pt" viewBox="0 0 48.000000 48.000000"
 preserveAspectRatio="xMidYMid meet">

<g transform="translate(0.000000,48.000000) scale(0.100000,-0.100000)"
fill="#000000" stroke="none">
<path d="M12 408 c-17 -17 -17 -239 0 -256 8 -8 52 -12 132 -12 l121 0 17 -30
c27 -47 95 -65 134 -35 17 13 15 14 -28 8 -43 -5 -50 -3 -77 25 -41 41 -42 83
-2 123 40 39 82 39 122 -1 22 -22 29 -37 27 -57 -4 -40 -32 -37 -36 3 -3 31
-20 43 -59 44 -32 0 -53 -49 -33 -80 11 -17 118 -24 138 -8 33 27 -3 115 -57
138 -30 12 -31 15 -31 69 0 31 -5 62 -12 69 -17 17 -339 17 -356 0z m283 -44
c-22 -20 -55 -47 -72 -61 l-33 -25 -32 25 c-18 14 -51 41 -73 61 l-40 35 145
0 145 0 -40 -35z m-190 -44 c40 -33 79 -60 86 -60 7 0 45 27 85 60 40 33 75
60 78 60 3 0 6 -22 6 -49 0 -40 -4 -51 -19 -56 -38 -12 -70 -46 -77 -81 l-6
-35 -117 3 -116 3 -3 108 c-1 59 0 107 3 107 4 0 40 -27 80 -60z m290 -150 c0
-18 -6 -26 -23 -28 -24 -4 -38 18 -28 44 3 9 15 14 28 12 17 -2 23 -10 23 -28z"/>
</g>
</svg>
