<?xml version="1.0" standalone="no"?>
<!DOCTYPE svg PUBLIC "-//W3C//DTD SVG 20010904//EN"
 "http://www.w3.org/TR/2001/REC-SVG-20010904/DTD/svg10.dtd">
<svg version="1.0" xmlns="http://www.w3.org/2000/svg"
 width="1956.000000pt" height="2098.000000pt" viewBox="0 0 1956.000000 2098.000000"
 preserveAspectRatio="xMidYMid meet">

<g transform="translate(0.000000,2098.000000) scale(0.100000,-0.100000)"
fill="#000000" stroke="none">
<path d="M8961 19334 c-13 -9 -33 -17 -45 -18 -16 -1 -21 -7 -19 -26 1 -14 0
-35 -3 -47 -6 -32 -47 -31 -64 2 -15 28 -33 31 -71 11 -17 -9 -59 -13 -117
-13 -59 0 -96 -4 -106 -12 -10 -8 -38 -12 -78 -10 -50 2 -72 -2 -107 -20 -28
-15 -52 -20 -68 -16 -16 4 -35 0 -50 -11 -17 -11 -38 -15 -63 -11 -29 4 -39 1
-49 -15 -9 -15 -22 -18 -55 -17 -38 2 -58 -6 -141 -55 -181 -108 -222 -141
-240 -194 -25 -71 -30 -77 -60 -80 -16 -2 -38 -10 -49 -17 -24 -16 -139 -55
-160 -55 -8 0 -33 -22 -56 -49 -23 -27 -65 -61 -93 -77 -29 -15 -72 -47 -97
-70 -47 -45 -150 -120 -210 -153 -43 -23 -74 -56 -66 -70 7 -11 -50 -101 -65
-101 -5 0 -21 -17 -37 -38 -15 -21 -33 -37 -40 -34 -14 4 -16 -14 -2 -23 6 -4
-2 -29 -19 -63 -15 -31 -32 -75 -36 -97 -7 -43 -75 -176 -107 -212 -12 -13
-18 -29 -14 -40 4 -12 -4 -39 -18 -66 -14 -25 -41 -96 -61 -156 -29 -87 -37
-129 -39 -194 -1 -74 -6 -91 -49 -185 -26 -57 -47 -116 -47 -132 0 -15 -7 -45
-16 -66 -11 -26 -14 -53 -10 -82 3 -24 1 -52 -5 -64 -6 -10 -13 -54 -15 -96
-3 -42 -9 -90 -14 -107 -18 -61 -11 -197 11 -211 5 -3 9 -18 9 -33 0 -16 7
-44 15 -64 24 -57 29 -225 12 -382 -9 -77 -19 -194 -22 -260 -4 -66 -11 -147
-17 -180 -13 -71 -12 -394 1 -476 9 -53 8 -87 -4 -222 -4 -41 -2 -48 11 -43
13 5 15 -2 13 -41 -4 -74 0 -113 11 -113 6 0 10 9 10 21 0 11 4 18 9 14 6 -3
8 -47 5 -103 -3 -61 1 -134 11 -197 17 -110 21 -144 32 -255 8 -72 9 -75 33
-72 24 3 15 -2 -96 -55 -54 -25 -98 -68 -129 -124 -26 -49 -29 -63 -29 -144 0
-76 5 -102 32 -170 42 -107 59 -187 71 -330 23 -262 24 -268 191 -745 12 -36
42 -108 65 -160 24 -52 47 -106 51 -120 26 -95 93 -179 175 -220 62 -32 142
-85 163 -109 16 -18 18 -32 14 -108 -5 -96 -3 -113 17 -113 18 0 29 -78 14
-97 -10 -11 -8 -17 9 -29 12 -8 22 -21 22 -29 0 -8 6 -18 14 -22 19 -11 56
-88 56 -117 0 -39 21 -78 59 -112 33 -29 35 -34 25 -60 -8 -23 -6 -36 8 -63
11 -18 17 -38 15 -44 -1 -5 8 -21 21 -34 23 -23 23 -25 6 -38 -18 -13 -18 -14
8 -24 14 -5 29 -20 33 -33 4 -13 13 -30 20 -38 6 -8 18 -36 25 -62 7 -26 23
-59 35 -72 44 -47 62 -82 68 -126 4 -35 13 -51 39 -72 67 -56 69 -59 67 -86
-2 -18 5 -36 21 -52 78 -80 130 -174 130 -234 0 -12 4 -47 10 -77 5 -30 14
-90 20 -134 13 -94 48 -268 60 -301 5 -12 16 -71 25 -131 37 -254 89 -441 157
-558 35 -61 144 -266 241 -455 60 -118 140 -258 176 -310 36 -52 78 -117 93
-145 15 -27 31 -49 36 -48 6 1 8 -8 5 -20 -5 -22 -5 -22 10 -2 9 11 17 32 17
47 0 28 -64 147 -87 161 -7 4 -13 16 -13 26 0 27 -31 115 -45 126 -6 6 -15 22
-19 38 -3 15 -11 27 -17 27 -11 0 -69 120 -69 143 0 7 -9 24 -20 37 -11 13
-20 29 -20 37 0 8 -9 33 -20 55 -11 23 -20 48 -20 55 0 7 -4 13 -8 13 -5 0 -9
20 -10 44 0 54 -21 116 -39 116 -7 0 -13 9 -13 20 0 12 7 20 16 20 10 0 14 7
12 23 -2 12 -9 21 -17 19 -9 -2 -11 5 -6 28 4 16 2 30 -3 30 -5 0 -15 18 -22
40 -7 22 -19 40 -27 40 -9 0 -13 13 -13 40 0 22 -4 40 -8 40 -16 0 -30 44 -21
68 15 39 34 28 72 -42 29 -52 47 -57 47 -13 0 33 -24 67 -48 67 -18 0 -15 14
9 45 18 22 19 29 8 35 -11 7 -10 12 3 27 23 26 48 79 41 87 -4 3 -17 6 -30 6
-30 0 -29 12 3 27 21 10 29 10 41 -2 8 -8 18 -15 22 -15 4 0 6 -24 3 -53 -4
-46 -1 -57 20 -80 30 -32 54 -22 50 23 -4 32 12 41 22 14 4 -10 14 -14 26 -11
13 3 20 0 20 -9 0 -8 8 -14 19 -14 14 0 17 5 13 27 l-5 27 28 -22 c15 -12 36
-22 46 -22 14 0 19 -7 19 -30 0 -33 19 -42 21 -10 1 11 3 25 4 30 1 6 3 14 4
19 3 22 32 20 41 -3 5 -13 20 -26 34 -30 20 -5 26 -13 26 -32 0 -19 4 -25 15
-20 10 3 33 -13 65 -46 27 -28 52 -49 55 -46 3 2 -4 13 -15 23 -19 17 -28 55
-13 55 3 0 24 -18 45 -40 22 -22 44 -38 48 -35 14 9 50 -18 50 -37 0 -20 16
-32 25 -18 7 11 25 4 25 -10 0 -5 -7 -7 -15 -4 -11 5 -13 -1 -8 -31 4 -26 2
-40 -8 -46 -10 -6 -6 -9 15 -9 20 0 27 4 23 14 -3 9 4 21 19 31 31 20 65 6 57
-25 -3 -12 0 -20 7 -20 9 0 11 -10 7 -30 -6 -26 -2 -32 25 -46 19 -10 34 -12
35 -7 2 6 15 8 28 5 24 -4 25 -3 19 44 -4 27 -11 55 -17 62 -7 9 -7 16 1 24 8
8 7 15 -6 24 -27 20 -6 28 29 10 18 -9 45 -16 61 -16 l28 0 -20 40 c-26 51
-25 56 5 36 13 -9 36 -16 50 -16 24 0 25 -2 19 -35 -5 -28 -3 -35 10 -35 9 0
16 -4 16 -9 0 -5 3 -18 7 -28 6 -15 4 -16 -8 -6 -13 11 -51 1 -39 -10 7 -7
140 -19 140 -14 0 3 -16 21 -35 40 -31 31 -33 37 -23 59 14 30 45 31 96 4 31
-16 33 -16 38 1 3 10 9 25 14 33 6 12 -3 18 -43 30 -28 9 -52 20 -54 27 -6 18
25 23 54 8 30 -16 38 -13 30 8 -3 8 -22 17 -41 21 -30 6 -36 11 -36 31 0 31
31 34 58 5 13 -14 25 -18 37 -14 15 6 17 4 12 -10 -6 -14 -3 -17 9 -12 8 3 20
6 25 6 5 0 7 11 3 25 -4 18 -2 25 8 25 27 0 28 -13 3 -46 -14 -18 -25 -36 -25
-40 0 -16 33 -42 47 -37 8 3 27 -4 43 -16 16 -11 39 -21 52 -21 20 0 18 3 -14
25 -20 14 -42 25 -48 25 -5 0 -19 5 -29 12 -17 10 -17 13 -4 26 10 11 11 17 3
22 -20 12 17 32 47 26 17 -4 40 0 57 9 38 20 39 20 31 -15 -5 -25 -3 -30 12
-30 10 1 29 7 42 14 13 7 32 11 43 8 21 -5 25 17 6 36 -9 9 -9 12 0 12 6 0 23
-12 37 -26 20 -20 33 -25 54 -21 16 3 33 1 40 -6 8 -8 15 -6 26 9 8 10 15 25
15 32 0 8 9 27 21 43 19 27 25 29 90 29 68 0 99 9 127 37 7 7 21 13 30 13 9 1
35 9 57 20 22 11 47 19 55 20 9 0 22 6 28 12 18 18 121 37 167 31 22 -3 49
-12 60 -19 39 -27 165 -9 165 24 0 10 8 25 18 33 31 29 62 73 62 91 0 10 5 18
10 18 6 0 16 11 22 25 9 19 19 25 45 25 22 0 33 5 33 15 0 18 37 38 53 28 36
-22 67 -4 62 37 -3 32 -1 31 -30 20 -35 -13 -41 5 -11 35 30 30 50 33 41 5 -6
-19 -3 -20 49 -16 43 3 56 0 56 -10 0 -10 7 -13 25 -8 19 5 25 2 25 -10 0 -20
3 -20 40 3 l31 19 -30 10 c-36 13 -42 40 -8 40 12 0 47 5 77 11 30 6 68 8 84
5 50 -11 24 19 -28 32 -54 14 -61 19 -71 52 -5 16 -2 24 12 29 10 4 24 15 31
25 8 11 26 18 47 18 41 0 67 9 59 21 -3 5 -14 9 -24 9 -21 0 -45 34 -35 50 3
6 14 10 23 10 9 0 26 7 36 15 11 8 31 15 44 15 18 0 23 4 18 16 -3 9 -6 18 -6
20 0 2 -7 4 -15 4 -14 0 -13 3 1 25 9 14 22 25 30 25 7 0 32 20 56 43 24 24
53 49 64 55 12 6 24 25 28 43 3 17 23 52 44 78 77 93 113 149 100 154 -10 4
-11 7 0 18 6 7 12 21 12 30 0 21 15 27 58 24 25 -1 32 2 27 12 -3 8 -5 17 -5
19 0 2 -4 4 -10 4 -5 0 -10 -7 -10 -15 0 -8 -4 -15 -9 -15 -5 0 -9 16 -8 35 1
28 4 34 18 30 13 -4 18 3 23 35 4 27 14 45 31 56 21 13 25 24 25 61 0 35 3 44
14 40 17 -7 26 12 27 56 0 32 0 32 11 7 l11 -25 5 24 c2 15 -2 28 -13 34 -15
8 -15 10 0 28 11 12 20 46 26 98 4 44 17 114 28 156 12 41 22 103 22 138 2 99
14 131 56 143 2 0 -3 15 -9 32 -7 18 -18 30 -25 28 -9 -4 -9 2 -1 25 5 16 14
32 19 35 5 3 9 20 9 39 0 21 12 51 35 85 32 47 49 110 26 95 -5 -3 -12 -1 -15
4 -10 15 5 41 23 41 25 0 33 11 20 26 -22 26 -4 46 61 68 112 39 170 68 181
89 8 14 8 18 0 13 -6 -4 -11 -2 -11 3 0 6 5 11 10 11 6 0 10 5 10 12 0 6 -8 4
-20 -7 -10 -9 -26 -15 -35 -11 -8 3 -39 -7 -68 -22 -57 -30 -101 -31 -116 -4
-5 9 -12 37 -16 62 -5 38 -3 50 15 73 12 15 19 35 16 43 -3 9 -1 24 4 35 6 10
15 104 21 209 12 246 25 280 103 280 33 0 49 8 80 36 l38 36 -6 129 c-5 118
-8 133 -36 184 -21 39 -28 63 -24 81 4 16 1 31 -9 42 -8 9 -20 34 -25 54 -6
20 -20 47 -32 60 -33 35 -42 66 -39 145 2 40 0 75 -4 79 -4 4 -7 79 -7 166 0
150 1 159 21 176 12 9 36 29 54 45 18 15 36 27 40 27 14 0 115 54 115 61 0 4
6 14 13 21 7 7 18 26 25 41 9 21 17 27 29 22 10 -3 14 -3 10 1 -4 4 -1 17 6
28 21 32 25 60 17 105 -4 23 -3 44 1 47 5 3 9 36 9 73 0 42 6 80 16 100 15 31
15 34 -9 83 -20 40 -23 56 -15 71 6 12 8 44 3 80 -4 40 -3 62 5 67 8 5 8 15 0
35 -6 16 -9 39 -6 51 3 12 1 35 -4 50 -15 44 -18 235 -4 223 8 -6 14 -4 18 6
3 8 11 15 19 15 7 0 13 10 14 21 1 12 -1 19 -4 15 -14 -13 -32 32 -33 79 0 30
-8 67 -20 90 -11 22 -20 47 -20 57 0 17 4 16 37 -7 50 -33 66 -31 26 3 l-32
28 -2 109 c-1 61 -5 115 -10 121 -14 18 -27 131 -16 149 5 9 6 23 3 31 -3 8
-1 14 4 14 18 0 10 41 -15 78 -14 21 -25 51 -25 70 0 19 -6 46 -14 60 -26 50
-66 157 -82 222 -9 36 -30 85 -48 110 -29 43 -31 50 -32 145 -1 80 -5 109 -22
145 -24 51 -27 82 -11 108 10 15 6 26 -19 60 -16 23 -52 62 -78 86 -27 24 -62
69 -79 100 -16 31 -38 71 -47 89 -10 18 -18 42 -18 54 0 12 -4 25 -10 28 -5 3
-10 16 -10 28 0 34 -26 64 -60 70 -36 8 -38 26 -5 57 26 25 25 41 -3 34 -9 -2
-22 -1 -28 3 -17 13 -64 79 -64 91 0 13 -47 62 -58 60 -4 -1 -31 34 -61 78
-30 43 -62 86 -71 94 -10 8 -36 51 -59 94 -22 43 -53 92 -68 110 -16 17 -37
48 -48 69 -11 20 -23 37 -27 37 -9 0 -51 88 -68 143 -13 42 -66 101 -85 93
-18 -7 -75 47 -75 70 0 11 -8 31 -17 44 -36 54 -205 239 -277 305 -76 69 -116
99 -102 76 4 -6 2 -11 -5 -11 -6 0 -35 24 -63 53 -82 84 -281 175 -416 191
-71 8 -211 9 -260 1 -34 -5 -63 -2 -114 14 -37 12 -85 21 -105 21 -20 0 -55 9
-76 20 -53 28 -180 52 -231 44 -22 -3 -58 -1 -80 5 -51 13 -123 24 -154 22
-104 -6 -128 -9 -154 -20 -36 -15 -56 -8 -90 29 -14 17 -32 30 -39 30 -6 1
-30 9 -52 20 -50 24 -122 26 -154 4z m-302 -133 c22 -12 23 -15 8 -26 -27 -20
-146 12 -132 35 8 13 95 6 124 -9z m71 -41 c0 -5 -6 -10 -14 -10 -8 0 -18 5
-21 10 -3 6 3 10 14 10 12 0 21 -4 21 -10z m1299 -895 c0 -5 -11 8 -24 30 -14
22 -25 47 -24 55 0 16 48 -68 48 -85z m51 57 c0 -15 -2 -15 -10 -2 -13 20 -13
33 0 25 6 -3 10 -14 10 -23z m860 -8 c0 -13 -4 -24 -10 -24 -5 0 -10 14 -10
31 0 17 4 28 10 24 6 -3 10 -17 10 -31z m-790 -53 c0 -21 -16 -2 -25 29 -7 24
-7 24 9 5 8 -11 16 -27 16 -34z m866 -49 c-10 -9 -15 2 -21 39 l-5 34 15 -34
c9 -18 14 -36 11 -39z m-950 -49 c-4 -4 -36 73 -35 85 0 4 9 -13 20 -37 11
-24 18 -46 15 -48z m940 -28 c-7 -48 -29 -13 -40 65 l-6 45 24 -48 c13 -26 23
-54 22 -62z m1111 -772 c-11 -10 -27 8 -27 30 l0 21 16 -22 c9 -13 14 -26 11
-29z m-2340 -14 c15 -6 71 -11 123 -11 54 0 101 -5 109 -11 7 -7 47 -11 92
-10 50 1 79 -2 79 -8 0 -7 18 -10 44 -8 24 2 42 1 39 -3 -7 -12 26 -9 50 3 13
8 22 8 24 2 2 -6 15 -8 28 -5 14 2 25 0 25 -5 0 -11 180 -11 197 0 7 4 16 0
21 -9 9 -16 11 -15 21 4 11 21 61 32 61 13 0 -12 86 -35 105 -27 23 8 65 -4
65 -19 0 -7 15 -20 33 -28 29 -15 32 -15 35 -1 3 13 6 12 18 -4 11 -16 23 -20
51 -17 21 2 57 -3 80 -12 35 -13 42 -20 48 -51 9 -48 14 -55 30 -42 16 13 45
3 45 -16 0 -8 9 -14 20 -14 12 0 17 -5 14 -14 -3 -9 4 -15 20 -18 14 -3 26 -1
26 5 0 22 45 -23 50 -49 4 -24 11 -30 39 -32 22 -2 35 -10 38 -22 3 -11 19
-22 41 -27 27 -6 38 -15 40 -31 2 -12 10 -22 18 -22 10 0 14 -13 14 -45 0 -40
3 -45 23 -45 22 -1 67 -31 67 -47 0 -4 -7 -20 -14 -35 -14 -26 -13 -28 5 -28
10 0 19 -4 19 -10 0 -5 9 -10 19 -10 12 0 24 -12 32 -30 17 -36 66 -61 80 -39
7 12 9 12 10 -1 1 -8 3 -19 4 -25 2 -5 3 -20 4 -33 1 -14 10 -26 26 -32 16 -6
23 -15 19 -24 -6 -16 23 -76 43 -89 6 -4 24 -33 39 -64 15 -32 36 -70 47 -85
11 -15 24 -47 29 -72 4 -26 13 -67 19 -93 5 -27 11 -57 13 -68 1 -11 8 -30 14
-41 21 -40 26 -131 9 -157 -11 -17 -13 -27 -5 -35 12 -12 1 -35 -13 -27 -5 4
-9 2 -9 -4 0 -5 4 -13 10 -16 6 -4 6 -12 1 -23 -18 -33 -24 -58 -25 -109 -1
-32 2 -47 7 -40 5 7 6 -19 2 -59 -4 -55 -3 -73 7 -77 10 -4 11 -7 1 -18 -17
-17 -16 -66 2 -164 9 -44 20 -114 26 -155 6 -41 14 -84 19 -95 19 -43 25 -72
27 -125 11 -356 19 -448 43 -496 11 -21 20 -50 20 -64 0 -14 5 -41 10 -60 6
-19 24 -114 41 -210 39 -225 56 -458 40 -560 -6 -41 -13 -149 -16 -240 -10
-265 -57 -539 -101 -591 -8 -8 -14 -21 -14 -27 0 -7 -4 -12 -9 -12 -4 0 -9
-28 -10 -61 -1 -41 -8 -73 -20 -93 -10 -17 -29 -62 -41 -101 -12 -38 -26 -79
-31 -90 -5 -11 -11 -42 -14 -70 -6 -80 -16 -116 -34 -122 -21 -8 -89 -77 -92
-94 -1 -8 1 -22 5 -31 5 -10 1 -26 -9 -40 l-16 -23 7 28 c3 15 2 27 -3 27 -15
0 -33 -47 -33 -85 0 -21 -9 -44 -24 -61 -23 -28 -23 -28 -30 -6 -10 29 -20 28
-37 -5 -11 -20 -11 -27 -1 -30 7 -3 11 -20 11 -41 -1 -24 -3 -29 -6 -14 -2 12
-10 22 -17 22 -8 0 -19 20 -26 44 -12 42 -13 43 -32 28 -11 -10 -24 -28 -30
-42 -10 -25 -10 -25 -25 15 -8 22 -15 49 -15 60 0 19 0 19 -10 -2 -8 -16 -18
-21 -46 -20 -34 2 -36 0 -73 -73 -21 -41 -50 -84 -64 -95 -18 -15 -25 -30 -24
-55 0 -19 3 -28 6 -20 7 17 52 65 56 59 2 -2 11 -35 20 -73 18 -67 18 -69 -2
-90 -10 -11 -22 -43 -26 -71 -4 -27 -11 -54 -15 -60 -15 -21 -31 -108 -31
-174 -1 -60 -4 -72 -28 -98 -22 -24 -28 -41 -30 -84 -1 -29 -7 -57 -13 -60 -7
-4 -8 -22 -4 -47 4 -31 2 -45 -13 -63 -19 -24 -19 -24 -40 -5 -28 25 -68 27
-74 4 -3 -10 -3 -37 1 -60 5 -38 3 -41 -10 -30 -9 7 -18 31 -22 54 -9 57 -13
60 -41 33 -23 -21 -34 -64 -25 -100 6 -23 -1 -27 -20 -10 -11 10 -20 26 -20
36 0 27 -18 32 -26 7 l-6 -21 -14 24 c-18 33 -17 70 3 99 11 16 13 25 5 28 -6
2 -16 28 -23 58 -10 44 -22 65 -68 112 -31 32 -68 66 -83 75 -27 17 -28 17
-29 0 0 -13 -3 -11 -10 7 -11 28 -38 60 -50 60 -5 0 -4 -12 2 -27 13 -34 8
-133 -7 -133 -33 0 -74 -33 -84 -68 -6 -24 -6 -38 0 -40 11 -4 14 -32 4 -32
-4 0 -12 8 -19 17 -11 14 -15 15 -28 4 -9 -7 -21 -10 -26 -6 -7 4 -9 -5 -5
-25 8 -37 -9 -40 -32 -5 -18 28 -34 33 -34 10 0 -8 -9 -19 -19 -25 -22 -11
-33 -38 -37 -88 -1 -18 -9 -44 -18 -56 -8 -13 -12 -33 -9 -45 4 -15 1 -21 -11
-21 -11 0 -16 -9 -16 -28 0 -31 -16 -56 -42 -65 -12 -4 -18 2 -23 24 -7 33
-19 38 -30 12 -7 -17 -8 -16 -15 2 -7 16 -9 12 -9 -17 -1 -48 -19 -58 -32 -19
-14 39 -28 40 -36 1 -3 -17 -10 -33 -16 -37 -6 -4 -8 2 -5 15 4 12 2 22 -3 22
-5 0 -14 11 -19 25 -11 30 -26 32 -35 5 -3 -11 -15 -20 -25 -20 -10 0 -25 -12
-35 -26 -16 -25 -17 -25 -36 -8 -10 9 -19 23 -19 31 0 7 -7 16 -15 19 -8 4
-15 15 -15 25 0 14 -7 19 -28 19 -24 0 -30 6 -45 48 -26 71 -45 96 -63 81 -11
-9 -13 -26 -8 -70 5 -43 3 -63 -7 -75 -8 -9 -12 -28 -11 -42 3 -17 0 -22 -8
-17 -8 5 -10 21 -6 47 6 34 4 39 -9 35 -10 -5 -21 6 -35 33 -16 31 -20 59 -20
134 0 108 -10 146 -40 146 -22 0 -26 -20 -9 -52 6 -11 13 -39 15 -62 4 -38 3
-40 -11 -22 -8 11 -15 26 -15 33 0 20 -30 16 -31 -4 0 -10 -2 -33 -5 -51 -3
-28 0 -34 22 -42 18 -7 24 -15 20 -26 -3 -9 -6 -20 -6 -25 0 -5 -7 -9 -16 -9
-19 0 -14 -32 17 -96 22 -46 25 -116 6 -136 -7 -7 -18 -25 -24 -40 -7 -16 -16
-28 -21 -28 -14 0 -31 83 -36 185 -6 106 -26 180 -47 180 -8 0 -20 12 -27 28
-17 35 -25 34 -39 -5 -6 -18 -19 -55 -29 -81 -18 -53 -40 -69 -58 -45 -7 9
-23 18 -36 20 -14 1 -25 10 -25 18 0 8 6 14 13 12 9 -2 12 4 7 17 -3 10 -1 38
6 62 6 24 12 55 13 69 2 14 4 30 4 37 3 24 37 33 66 18 25 -13 27 -13 36 10 5
14 17 25 27 25 15 0 16 1 0 13 -9 6 -19 24 -22 38 -5 21 3 34 49 82 44 44 64
58 96 63 22 4 40 10 40 15 0 21 22 6 37 -26 18 -37 31 -43 51 -23 9 9 12 6 12
-16 0 -18 -4 -25 -11 -20 -8 5 -10 -3 -7 -27 3 -19 1 -42 -4 -53 -13 -25 4
-42 22 -21 7 8 19 15 26 15 18 0 18 11 1 34 -18 24 -10 63 16 81 25 18 36 9
47 -37 7 -28 8 -24 9 30 1 74 -14 102 -70 134 -22 12 -39 28 -39 35 0 7 -11
13 -25 13 -14 0 -25 5 -25 10 0 6 -9 10 -19 10 -11 0 -23 -4 -26 -10 -8 -14
-21 -13 -37 3 -43 44 -101 50 -150 16 -21 -14 -35 -29 -30 -34 4 -4 0 -6 -9
-3 -9 4 -28 -7 -50 -29 -19 -20 -56 -49 -83 -66 -40 -25 -46 -32 -34 -41 12
-9 13 -17 5 -36 -9 -23 -10 -23 -14 -5 -10 48 -14 51 -33 28 -9 -12 -20 -19
-24 -16 -3 4 -6 -1 -6 -10 0 -9 6 -16 12 -14 7 1 14 -8 16 -20 2 -16 -2 -23
-12 -23 -9 0 -16 -4 -16 -10 0 -5 -7 -10 -15 -10 -8 0 -22 -18 -31 -40 -17
-41 -37 -52 -48 -25 -7 19 -26 20 -26 1 0 -22 -45 -47 -59 -33 -9 9 -11 6 -9
-13 3 -25 -2 -27 -36 -14 -16 6 -17 4 -12 -17 7 -23 6 -23 -8 -5 -9 11 -16 23
-16 28 0 4 -8 8 -18 8 -10 0 -23 5 -29 11 -7 7 -19 1 -41 -20 -35 -36 -62 -40
-62 -11 0 11 5 20 10 20 6 0 10 7 10 16 0 11 -6 14 -22 9 -37 -12 -43 -11 -44
5 -1 8 -2 21 -3 29 -1 11 -5 11 -19 -2 -10 -10 -23 -17 -28 -17 -5 0 -2 5 6
10 12 7 12 12 3 21 -9 9 -16 9 -29 -2 -14 -11 -18 -11 -22 -1 -5 16 -32 -4
-32 -24 0 -8 -2 -14 -4 -14 -2 0 -11 -3 -20 -6 -19 -7 -22 26 -5 57 9 17 6 21
-19 30 -23 8 -31 18 -36 47 -18 109 -21 117 -44 120 -17 3 -21 8 -17 23 8 24
-12 25 -44 3 -22 -16 -24 -15 -48 10 -14 15 -22 33 -20 40 3 8 1 18 -5 24 -6
6 -28 -8 -64 -43 -30 -29 -54 -57 -54 -62 0 -10 -63 -77 -115 -121 -22 -19
-44 -44 -50 -55 -6 -12 -26 -30 -45 -39 -19 -10 -27 -18 -18 -18 25 0 43 -37
27 -56 -6 -8 -17 -14 -24 -14 -8 0 -15 -5 -17 -11 -6 -19 -46 0 -50 24 -4 30
-44 36 -53 7 -4 -12 -10 -19 -13 -17 -4 2 -22 9 -39 16 -18 7 -33 17 -33 22 0
5 -9 9 -21 9 -37 0 -45 20 -43 105 1 44 6 88 9 98 4 9 4 28 1 41 -3 13 -2 26
3 28 5 2 12 26 16 53 5 36 4 46 -4 35 -10 -13 -11 -13 -12 0 0 8 -4 4 -8 -10
-8 -29 -51 -42 -51 -16 0 9 -4 16 -10 16 -18 0 -11 19 21 55 26 29 28 36 15
41 -12 5 -16 19 -15 58 0 28 -2 74 -6 101 -4 28 -8 67 -7 88 0 20 -3 37 -7 37
-4 0 -22 -18 -41 -41 -28 -36 -34 -39 -47 -26 -11 11 -13 22 -5 50 6 20 7 38
4 41 -12 12 -31 5 -37 -14 -6 -20 -45 -29 -45 -10 0 6 -9 20 -20 32 -21 23
-26 43 -11 52 11 7 -1 59 -15 62 -9 3 -54 -60 -54 -77 0 -5 -4 -9 -10 -9 -5 0
-10 8 -10 18 0 10 -3 22 -7 26 -5 4 -6 34 -5 65 3 46 0 59 -12 64 -10 4 -16 1
-16 -8 0 -8 -7 -15 -16 -15 -11 0 -14 5 -10 16 3 9 6 24 6 35 0 10 6 19 14 19
9 0 12 7 9 20 -3 11 0 26 6 34 7 8 9 25 6 38 -3 13 -7 32 -9 41 -1 9 -5 20 -9
23 -4 4 -7 14 -7 22 0 12 3 12 15 2 25 -21 48 -4 40 29 -3 16 -8 73 -10 127
-6 145 -7 149 -32 152 -28 4 -30 25 -3 43 18 13 19 18 8 52 -9 30 -9 43 0 58
11 17 9 25 -9 51 -32 44 -34 123 -4 98 16 -13 35 -5 35 15 0 16 -33 30 -38 16
-4 -12 -35 -15 -45 -4 -4 3 -1 13 6 21 9 11 9 16 1 19 -7 2 -10 12 -7 22 3 13
-2 20 -17 24 -14 4 -20 12 -19 24 2 10 0 23 -4 30 -4 6 -3 14 3 18 20 12 10
31 -23 43 -41 15 -77 16 -77 2 0 -24 -29 -7 -39 23 -11 35 -10 47 8 90 6 16 8
34 5 39 -5 8 3 9 25 5 24 -5 30 -4 24 6 -4 6 -9 28 -10 47 -2 45 -17 122 -27
139 -4 7 -14 10 -22 7 -9 -4 -14 2 -14 16 0 11 -8 27 -17 34 -10 7 -14 16 -10
21 5 4 14 0 21 -10 19 -25 36 -21 36 8 0 21 5 25 30 25 20 0 30 5 30 15 0 8 7
15 15 15 20 0 19 15 -2 36 -17 17 -18 16 -24 -12 -4 -18 -7 -22 -8 -9 -1 34
11 65 25 65 8 0 14 7 14 15 0 8 9 19 21 25 16 9 18 14 8 26 -16 20 7 47 34 38
16 -5 19 -3 14 10 -8 21 2 46 19 46 8 0 23 9 34 20 11 11 29 20 40 20 12 0 22
9 26 24 3 14 13 27 21 30 10 4 13 14 9 30 -5 19 0 28 22 41 34 22 56 45 65 67
4 11 22 20 47 24 36 6 40 9 40 35 0 16 5 29 13 29 6 0 44 5 82 11 39 6 120 10
181 10 103 0 112 1 137 24 14 14 33 25 42 25 9 0 37 12 62 27 25 15 64 30 87
34 42 7 141 41 152 52 3 3 3 11 -1 17 -4 6 -8 50 -9 96 -2 71 0 84 13 84 22 0
80 -36 114 -70 16 -16 38 -30 50 -32 17 -2 11 -9 -33 -38 -65 -42 -76 -63 -30
-55 18 3 41 10 52 16 10 5 23 7 28 4 12 -7 140 22 157 36 7 7 13 18 13 26 0
23 -57 71 -123 104 -34 17 -70 38 -79 46 -9 8 -21 12 -27 9 -5 -4 -12 -2 -16
4 -3 5 -25 9 -48 8 -26 -1 -60 7 -89 21 -45 22 -58 23 -205 19 -126 -3 -163
-7 -183 -20 -14 -9 -43 -20 -65 -24 -39 -7 -40 -6 -22 13 21 24 22 37 2 29 -8
-3 -15 -2 -15 2 0 12 84 42 149 53 34 5 120 8 190 7 102 -2 132 -7 154 -21 16
-11 43 -17 65 -16 26 2 63 -10 122 -38 83 -39 184 -61 195 -43 8 13 -58 60
-84 60 -13 0 -42 14 -65 31 -32 22 -61 33 -112 40 -38 5 -77 12 -87 15 -35 11
-265 4 -372 -11 -161 -23 -223 -40 -319 -85 -48 -23 -96 -43 -108 -45 -12 -3
-35 -18 -52 -33 -17 -16 -50 -41 -74 -54 -24 -14 -42 -27 -40 -29 2 -3 -7 -18
-20 -34 l-23 -30 5 30 c7 39 -13 66 -42 58 -18 -4 -20 -8 -11 -20 9 -10 9 -20
0 -39 -14 -32 -14 -37 3 -31 9 4 14 -2 14 -16 -1 -21 9 -90 13 -94 6 -9 5 -73
-3 -98 -9 -34 -95 -95 -132 -95 -12 0 -27 -5 -33 -11 -6 -6 -16 -8 -22 -5 -14
9 -3 34 20 41 10 4 19 13 19 21 0 17 17 19 23 2 2 -7 8 -9 13 -5 5 4 2 12 -5
16 -11 7 -11 15 -2 41 14 42 15 40 -9 40 -17 0 -19 4 -11 18 5 9 9 35 9 56 0
29 6 44 23 57 18 13 23 26 21 54 -2 20 1 42 6 49 14 17 24 103 14 110 -17 10
2 161 24 186 7 8 16 28 19 43 6 21 12 26 24 21 47 -19 51 -18 51 20 0 26 5 39
18 43 9 4 21 13 25 21 6 9 18 12 33 8 37 -10 65 10 58 39 -3 14 -2 25 3 25 13
0 35 49 28 61 -4 5 -1 9 4 9 6 0 11 7 11 15 0 8 4 15 10 15 22 0 117 -23 135
-33 11 -6 54 -12 95 -14 41 -1 113 -6 160 -11 61 -6 96 -5 125 4 22 6 58 16
80 20 22 5 40 14 40 21 0 7 6 18 14 25 11 11 12 10 7 -8 -7 -24 19 -52 54 -59
13 -3 26 -9 30 -14 12 -21 95 -69 105 -62 26 21 68 21 101 2 30 -18 64 -19 64
-3 0 3 -10 26 -22 50 -19 41 -20 46 -5 57 10 7 14 20 11 33 -4 14 0 25 14 33
11 7 18 18 15 25 -3 8 4 10 21 7 16 -3 26 -1 26 6 0 6 -14 11 -30 11 -24 0
-35 7 -51 35 -24 41 -58 55 -71 30 -9 -15 -11 -15 -29 1 -12 11 -19 13 -19 5
0 -7 -5 -9 -10 -6 -8 5 -7 11 1 21 16 19 4 30 -16 14 -9 -8 -13 -21 -9 -32 3
-10 0 -25 -6 -33 -10 -12 -10 -15 -1 -15 7 0 9 -5 6 -10 -11 -18 -95 14 -117
45 -4 5 -8 0 -8 -12 0 -15 7 -23 22 -25 13 -2 24 -11 26 -22 4 -17 -1 -19 -54
-13 -48 5 -63 11 -87 37 -20 22 -34 29 -48 25 -11 -4 -19 -2 -19 4 0 6 5 11
10 11 6 0 10 6 10 14 0 32 26 44 75 33 54 -12 65 -5 58 40 -4 22 -9 30 -19 26
-8 -3 -16 2 -20 10 -10 27 -50 28 -129 1 -43 -14 -99 -28 -124 -29 -25 -2 -80
-6 -121 -9 -41 -3 -104 -9 -140 -13 -81 -9 -97 -9 -139 -3 -30 4 -35 9 -36 35
-1 17 -5 36 -9 43 -4 7 -2 12 6 12 9 0 8 5 -3 16 -15 14 -41 23 -129 44 -19 4
-29 8 -22 9 17 1 15 21 -2 21 -7 0 -19 7 -26 15 -10 12 -10 15 1 15 10 0 10 3
1 12 -19 19 -14 34 15 47 24 11 25 13 10 28 -15 16 -18 15 -42 -7 -14 -13 -25
-18 -25 -12 0 7 -9 12 -20 12 -19 0 -20 -1 -5 -24 11 -17 13 -26 5 -31 -17
-11 -40 3 -40 24 0 11 -6 21 -12 24 -10 4 -10 7 0 18 14 15 17 69 3 69 -5 0
-4 11 2 24 14 30 94 44 112 19 10 -14 13 -13 27 1 9 9 19 16 23 16 10 0 35 27
29 33 -3 2 4 21 15 41 24 42 19 44 -26 14 -21 -15 -33 -31 -33 -45 0 -13 -2
-23 -4 -23 -2 0 -11 -3 -19 -6 -12 -4 -14 0 -10 14 3 14 -1 22 -16 27 -12 3
-21 10 -21 15 0 5 -7 16 -16 25 -22 22 -11 44 19 38 18 -4 30 2 46 22 12 16
21 22 21 14 0 -10 3 -10 8 -3 4 7 26 17 50 24 24 8 42 19 42 28 0 11 10 14 49
10 49 -5 50 -4 49 23 -1 19 -5 26 -14 22 -8 -3 -14 -9 -14 -14 0 -5 -4 -9 -9
-9 -6 0 -5 14 0 35 6 19 8 39 4 44 -12 21 21 16 38 -6 24 -30 33 -29 41 3 10
37 -1 63 -23 57 -10 -3 -22 0 -26 7 -5 8 -12 7 -24 -4 -21 -19 -65 -10 -57 11
3 8 6 21 6 29 0 12 4 12 20 2 28 -18 39 1 13 22 -28 23 -29 46 -3 60 23 13 26
30 5 30 -8 0 -19 8 -24 18 -18 33 46 55 91 31 15 -8 27 -8 45 2 19 10 28 10
43 1 28 -17 32 -15 13 7 -13 16 -25 18 -69 14 -37 -4 -59 -2 -69 7 -15 12 -15
14 -1 22 8 5 13 15 10 22 -8 21 17 32 28 12 5 -9 19 -16 32 -16 24 0 61 32 50
43 -11 11 17 67 33 67 9 0 13 -6 9 -15 -3 -9 0 -15 9 -15 8 0 18 12 21 28 4
15 20 39 36 54 23 21 36 26 59 21 16 -3 29 -2 29 1 0 15 -29 36 -43 30 -8 -3
-24 5 -36 17 -12 13 -21 17 -21 11 0 -7 -4 -12 -10 -12 -16 0 -11 32 7 46 10
7 18 20 18 30 0 12 12 21 35 27 19 5 41 13 47 19 9 7 15 5 20 -8 4 -10 2 -19
-5 -22 -17 -5 -15 -22 3 -22 8 0 15 5 15 10 0 6 6 10 13 10 6 0 22 8 35 18
l23 18 -25 12 c-28 13 -35 32 -11 32 8 0 15 7 15 15 0 9 10 15 26 15 14 0 23
4 19 10 -8 14 -65 13 -65 -1 0 -6 -8 -1 -19 12 -18 22 -18 23 1 43 18 20 20
20 32 4 18 -24 66 -24 66 0 0 10 -4 22 -10 28 -11 11 -2 25 25 40 11 6 24 20
30 32 5 12 15 22 22 22 6 0 14 6 16 13 4 9 8 9 15 -2 12 -17 32 -6 32 19 0 10
7 20 15 24 9 3 15 0 15 -10 0 -8 5 -12 10 -9 6 3 10 24 10 45 0 37 2 40 28 38
15 -1 30 -6 34 -12 3 -5 13 -2 23 7 9 10 25 17 36 17 13 0 19 7 19 24 0 13 -5
26 -12 28 -7 3 -9 11 -4 24 8 19 8 19 15 0 4 -11 10 -15 14 -10 3 6 2 16 -4
24 -14 23 -11 50 6 50 14 0 71 25 84 36 2 2 -2 10 -9 19 -14 17 -7 45 13 45 7
0 18 -12 24 -27 l10 -28 13 33 c12 32 13 32 31 16 18 -17 21 -16 47 3 15 11
42 24 60 28 18 3 32 12 32 18 1 7 6 -1 13 -16 l12 -29 27 22 28 21 24 -25 c28
-31 51 -33 66 -6 6 11 17 20 24 20 12 0 31 26 28 40 0 3 20 7 45 8 25 1 54 9
64 18 10 9 19 11 23 5 4 -6 17 -6 38 1 24 9 33 8 36 0 4 -14 38 -16 47 -2 3 5
29 7 58 4 29 -3 66 -6 82 -8 30 -3 75 7 108 25 10 5 21 8 25 5 4 -2 41 2 82
10 50 9 77 10 86 3 7 -5 14 -6 16 -2 3 8 76 50 90 52 4 1 19 -4 35 -10z
m-1347 -138 c0 -6 -4 -13 -10 -16 -5 -3 -10 1 -10 9 0 9 5 16 10 16 6 0 10 -4
10 -9z m-40 -31 c0 -5 -7 -10 -15 -10 -8 0 -15 5 -15 10 0 6 7 10 15 10 8 0
15 -4 15 -10z m-67 -21 c-5 -5 -8 -21 -5 -35 4 -20 10 -24 43 -24 28 0 39 4
39 15 0 16 15 20 24 7 9 -15 -33 -42 -65 -42 -17 0 -38 7 -46 16 -11 10 -26
14 -45 10 -21 -4 -28 -2 -28 10 0 26 -47 -17 -54 -49 -5 -24 -9 -27 -33 -21
-39 10 -41 13 -15 34 12 10 22 29 22 44 0 24 3 26 48 26 26 0 52 4 58 9 9 9
55 19 63 14 3 -2 0 -8 -6 -14z m102 -9 c3 -5 -1 -10 -10 -10 -9 0 -13 5 -10
10 3 6 8 10 10 10 2 0 7 -4 10 -10z m-145 -96 c0 -4 -11 -17 -25 -30 -28 -26
-30 -25 -13 11 10 22 38 36 38 19z m-176 -59 c-7 -21 -22 -35 -39 -35 -22 0
-32 15 -24 37 6 17 15 22 38 20 26 -2 30 -5 25 -22z m-354 -635 c6 -11 7 -20
2 -20 -6 0 -12 9 -15 20 -3 11 -3 20 -1 20 2 0 8 -9 14 -20z m4410 -28 c12
-45 12 -52 2 -52 -13 0 -32 47 -32 76 0 35 17 21 30 -24z m-4650 -322 c0 -5
-4 -10 -10 -10 -5 0 -10 5 -10 10 0 6 5 10 10 10 6 0 10 -4 10 -10z m7 -62
c-3 -7 -5 -2 -5 12 0 14 2 19 5 13 2 -7 2 -19 0 -25z m4851 -165 c-3 -44 -4
-45 -12 -20 -5 15 -4 58 0 95 9 67 9 67 12 20 2 -27 2 -69 0 -95z m-4848 87
c0 -5 -5 -10 -11 -10 -5 0 -7 5 -4 10 3 6 8 10 11 10 2 0 4 -4 4 -10z m-67
-37 c-18 -7 -16 -33 2 -33 9 0 18 7 21 15 10 24 25 17 21 -10 -4 -33 -12 -39
-42 -31 -16 4 -25 13 -25 25 0 11 -6 21 -12 24 -9 3 -7 9 7 20 14 11 23 12 30
5 7 -7 6 -12 -2 -15z m4891 -226 c-4 -56 -11 -111 -16 -122 -5 -13 -7 2 -3 44
3 35 5 93 5 128 0 43 4 62 11 58 7 -5 8 -40 3 -108z m-5049 -487 c16 13 30 -3
21 -25 -7 -20 -36 -19 -36 0 0 8 -8 15 -17 15 -15 0 -16 2 -3 10 10 6 16 6 18
-1 3 -6 9 -6 17 1z m-30 -40 c3 -5 -1 -10 -9 -10 -9 0 -16 5 -16 10 0 6 4 10
9 10 6 0 13 -4 16 -10z m893 -88 c2 -7 -3 -12 -12 -12 -9 0 -16 7 -16 16 0 17
22 14 28 -4z m-328 -607 c-7 -9 -15 -13 -17 -11 -7 7 7 26 19 26 6 0 6 -6 -2
-15z m-1028 -127 c0 -13 2 -28 2 -35 1 -7 7 -18 14 -25 16 -16 15 -27 -3 -62
-8 -15 -12 -33 -8 -39 3 -6 1 -7 -5 -3 -8 5 -12 -5 -12 -31 0 -21 -5 -45 -10
-53 -9 -13 -11 -13 -20 0 -5 8 -7 24 -3 35 3 11 6 68 5 128 -1 100 0 107 18
107 14 0 20 -7 22 -22z m1423 -3 c0 -18 -5 -20 -70 -16 -81 4 -90 7 -74 27 9
11 30 14 78 12 58 -3 66 -5 66 -23z m55 -15 c0 -11 -7 -20 -15 -20 -15 0 -21
21 -8 33 12 13 23 7 23 -13z m-440 -50 c0 -5 20 -36 45 -69 25 -32 45 -62 45
-65 0 -21 -139 16 -141 37 -1 7 -3 25 -5 40 -2 18 4 35 17 48 21 21 39 25 39
9z m-1084 -307 c-1 -53 -4 -68 -16 -68 -9 0 -14 8 -12 20 1 11 3 34 3 50 2 27
15 65 23 65 2 0 3 -30 2 -67z m44 -43 c0 -5 -4 -10 -10 -10 -5 0 -10 5 -10 10
0 6 5 10 10 10 6 0 10 -4 10 -10z m487 -132 c-3 -8 -6 -5 -6 6 -1 11 2 17 5
13 3 -3 4 -12 1 -19z m-104 -35 c-13 -2 -33 -2 -45 0 -13 2 -3 4 22 4 25 0 35
-2 23 -4z m104 -85 c-3 -8 -6 -5 -6 6 -1 11 2 17 5 13 3 -3 4 -12 1 -19z
m-229 -109 c-2 -6 -7 -10 -11 -10 -4 1 -14 1 -22 1 -8 0 -15 5 -15 10 0 6 12
10 26 10 14 0 24 -5 22 -11z m62 -9 c0 -5 -5 -10 -11 -10 -5 0 -7 5 -4 10 3 6
8 10 11 10 2 0 4 -4 4 -10z m-160 -50 c0 -16 -4 -30 -10 -30 -11 0 -14 43 -3
53 11 12 13 8 13 -23z m-644 -65 c2 -19 -1 -35 -6 -35 -6 0 -10 19 -10 42 0
49 12 43 16 -7z m644 -19 c0 -21 -21 -31 -31 -15 -5 8 -3 17 4 21 18 12 27 10
27 -6z m86 5 c-8 -13 3 -39 18 -43 9 -2 11 -10 6 -23 -7 -19 -9 -18 -19 8 -6
15 -22 32 -36 37 -31 12 -24 30 11 30 14 0 23 -4 20 -9z m-696 -181 c0 -22 -2
-40 -5 -40 -10 0 -26 53 -21 67 11 27 26 11 26 -27z m6022 -124 c-3 -64 -18
-107 -41 -114 -12 -4 -13 8 -8 69 7 89 14 111 36 107 13 -3 15 -15 13 -62z
m-5122 -150 c0 -3 -4 -8 -10 -11 -5 -3 -10 -1 -10 4 0 6 5 11 10 11 6 0 10 -2
10 -4z m-423 -48 c-3 -8 -6 -5 -6 6 -1 11 2 17 5 13 3 -3 4 -12 1 -19z m382
-29 c-15 -9 -32 -2 -24 11 3 5 13 6 21 3 12 -4 13 -8 3 -14z m137 -460 c3 -6
1 -16 -5 -22 -8 -8 -11 -8 -11 1 0 7 -8 12 -17 12 -15 0 -16 2 -3 10 20 13 27
12 36 -1z m8 -254 c-7 -16 -24 -21 -24 -6 0 8 7 13 27 20 1 1 0 -6 -3 -14z
m4606 -145 c9 -16 7 -24 -5 -36 -8 -8 -15 -23 -15 -32 0 -10 -9 -23 -20 -30
-20 -12 -28 -52 -10 -52 6 0 10 -9 10 -20 0 -11 -5 -20 -11 -20 -6 0 -13 9
-16 20 -3 11 -9 20 -14 20 -17 0 -9 57 11 75 11 10 20 27 20 38 0 17 25 57 36
57 2 0 8 -9 14 -20z m-297 -284 c21 -16 22 -26 3 -26 -8 0 -16 -6 -19 -12 -6
-17 -14 -8 -22 25 -8 30 7 36 38 13z m89 -93 c2 -31 -1 -48 -13 -59 -8 -8 -18
-14 -21 -14 -3 0 -5 31 -6 69 0 65 1 69 18 59 12 -8 19 -27 22 -55z m114 -31
c-11 -10 -13 3 -7 43 l6 40 3 -39 c2 -21 1 -41 -2 -44z m-266 -9 c0 -5 -5 -15
-10 -23 -8 -12 -10 -11 -10 8 0 12 5 22 10 22 6 0 10 -3 10 -7z m-3960 -92 c0
-5 -11 -20 -25 -35 -28 -31 -33 -20 -10 25 14 26 35 32 35 10z m3888 -27 c-10
-10 -28 6 -28 24 0 15 1 15 17 -1 9 -9 14 -19 11 -23z m192 30 c0 -3 -5 -14
-11 -25 -7 -14 -7 -30 -1 -48 8 -22 5 -32 -12 -54 -23 -29 -36 -27 -36 5 0 20
-11 23 -27 7 -6 -6 -19 -9 -29 -7 -14 2 -5 16 42 64 55 57 74 72 74 58z m-150
-69 c0 -29 -15 -33 -29 -6 -11 20 -5 31 16 31 7 0 13 -11 13 -25z m-160 -240
c0 -19 -4 -35 -10 -35 -5 0 -10 16 -10 35 0 19 5 35 10 35 6 0 10 -16 10 -35z
m-3040 11 c0 -8 -13 -16 -30 -18 -34 -5 -44 0 -31 16 14 17 61 18 61 2z m3115
-47 c0 -15 8 -28 23 -34 25 -11 30 -45 7 -45 -8 0 -15 5 -15 11 0 6 -9 22 -20
36 -22 29 -27 67 -7 60 6 -2 12 -15 12 -28z m-65 -97 c0 -33 -25 -72 -46 -72
-9 0 -14 3 -12 8 13 26 27 60 32 75 8 27 26 20 26 -11z m-2143 -32 c1 -11 -4
-20 -13 -20 -14 0 -19 21 -7 33 11 12 19 7 20 -13z m1619 -65 c6 -23 0 -45
-10 -34 -10 12 -15 59 -6 59 5 0 12 -11 16 -25z m-2076 -179 c0 -2 -7 -7 -16
-10 -8 -3 -12 -2 -9 4 6 10 25 14 25 6z m1617 -88 c-3 -8 -6 -5 -6 6 -1 11 2
17 5 13 3 -3 4 -12 1 -19z m-1155 -30 c-6 -6 -7 0 -4 19 5 21 7 23 10 9 2 -10
0 -22 -6 -28z m447 -95 c-14 -37 -24 -18 -33 59 -10 81 3 94 26 25 14 -44 16
-62 7 -84z m1379 88 c5 -15 7 -34 2 -40 -5 -9 -9 -5 -12 11 -3 12 -9 31 -13
41 -4 9 -3 17 3 17 6 0 15 -13 20 -29z m-1612 -29 c0 -17 5 -36 10 -44 13 -16
16 -58 4 -58 -5 0 -11 4 -15 10 -3 5 -13 6 -22 3 -16 -6 -52 31 -53 55 0 17
52 72 65 68 6 -1 10 -17 11 -34z m-96 -40 c0 -7 -10 -34 -21 -60 l-22 -47 -15
48 c-14 43 -14 50 3 87 l18 41 19 -28 c10 -16 18 -34 18 -41z m-90 -12 c-12
-22 -30 -18 -30 6 0 8 9 14 20 14 18 0 19 -3 10 -20z m1090 -16 c0 -8 -5 -12
-10 -9 -6 4 -8 11 -5 16 9 14 15 11 15 -7z m-511 -25 c3 -24 3 -24 -18 -5 -11
10 -18 23 -15 28 10 16 29 2 33 -23z m1146 2 c3 -5 1 -12 -5 -16 -5 -3 -10 1
-10 9 0 18 6 21 15 7z m-1735 -31 c0 -5 -7 -10 -15 -10 -8 0 -15 5 -15 10 0 6
7 10 15 10 8 0 15 -4 15 -10z m1640 -710 c0 -5 -4 -10 -10 -10 -5 0 -10 5 -10
10 0 6 5 10 10 10 6 0 10 -4 10 -10z m90 -4 c0 -3 -4 -8 -10 -11 -5 -3 -10 -1
-10 4 0 6 5 11 10 11 6 0 10 -2 10 -4z m-368 -219 c-24 -27 -37 -4 -16 28 16
25 19 26 25 9 4 -12 0 -26 -9 -37z m-112 -7 c0 -5 -4 -10 -10 -10 -5 0 -10 5
-10 10 0 6 5 10 10 10 6 0 10 -4 10 -10z m-2196 -35 c16 20 89 -13 82 -37 -2
-10 -1 -18 4 -18 4 0 10 -9 13 -20 3 -11 1 -20 -4 -20 -5 0 -9 7 -9 15 0 8 -5
15 -10 15 -6 0 -13 -7 -16 -15 -11 -29 -34 -17 -34 18 0 29 -3 33 -27 32 -40
-1 -65 15 -51 33 9 11 14 10 26 -2 13 -13 17 -13 26 -1z m-277 -47 c-3 -8 -6
-5 -6 6 -1 11 2 17 5 13 3 -3 4 -12 1 -19z m-12 -41 c14 -16 13 -20 -5 -39
-21 -23 -41 -18 -21 5 15 19 5 45 -20 52 -17 6 -18 9 -8 22 11 13 15 13 26 -4
7 -10 20 -26 28 -36z m575 -37 c0 -5 -2 -10 -4 -10 -3 0 -8 5 -11 10 -3 6 -1
10 4 10 6 0 11 -4 11 -10z m15 -78 c-8 -8 -25 10 -25 26 0 13 2 13 14 -4 8
-10 13 -21 11 -22z m1064 29 c8 -5 9 -11 3 -15 -13 -8 -42 3 -42 15 0 11 21
11 39 0z m121 -21 c7 -14 7 -20 0 -20 -5 0 -10 6 -10 14 0 8 -6 17 -12 19 -10
4 -10 6 -1 6 7 1 17 -8 23 -19z m-580 -22 c0 -13 -23 -5 -28 10 -2 7 2 10 12
6 9 -3 16 -11 16 -16z m198 11 c-2 -6 -8 -10 -13 -10 -5 0 -11 4 -13 10 -2 6
4 11 13 11 9 0 15 -5 13 -11z m-210 -86 c32 -4 42 -10 42 -24 0 -11 -4 -19
-10 -19 -5 0 -10 5 -10 10 0 6 -16 10 -36 10 -39 0 -74 15 -74 32 0 6 9 8 23
4 12 -4 41 -10 65 -13z"/>
<path d="M11150 17070 c0 -5 5 -10 11 -10 5 0 7 5 4 10 -3 6 -8 10 -11 10 -2
0 -4 -4 -4 -10z"/>
<path d="M7882 16468 c7 -19 35 -21 41 -3 5 11 0 15 -19 15 -16 0 -24 -5 -22
-12z"/>
<path d="M7957 16333 c-13 -12 -7 -23 13 -23 11 0 20 7 20 15 0 15 -21 21 -33
8z"/>
<path d="M7760 16220 c0 -6 6 -20 13 -31 10 -17 10 -23 0 -26 -7 -3 -13 -9
-13 -14 0 -5 11 -2 25 7 27 18 32 43 13 62 -15 15 -38 16 -38 2z"/>
<path d="M7806 15943 c-6 -14 -5 -15 5 -6 7 7 10 15 7 18 -3 3 -9 -2 -12 -12z"/>
<path d="M12000 15841 c0 -16 5 -33 10 -36 6 -4 10 6 10 24 0 16 -4 33 -10 36
-6 4 -10 -6 -10 -24z"/>
<path d="M7715 15770 c4 -6 11 -8 16 -5 14 9 11 15 -7 15 -8 0 -12 -5 -9 -10z"/>
<path d="M7760 15740 c0 -5 9 -10 20 -10 11 0 20 5 20 10 0 6 -9 10 -20 10
-11 0 -20 -4 -20 -10z"/>
<path d="M7476 15684 c-4 -9 -4 -19 -2 -21 8 -8 26 8 26 23 0 19 -16 18 -24
-2z"/>
<path d="M7440 15609 c0 -5 5 -7 10 -4 6 3 10 8 10 11 0 2 -4 4 -10 4 -5 0
-10 -5 -10 -11z"/>
<path d="M7357 15401 c3 -12 10 -21 15 -21 13 0 6 32 -9 37 -7 3 -9 -3 -6 -16z"/>
<path d="M10448 15311 c-31 -14 -34 -18 -25 -39 6 -13 16 -21 24 -18 16 6 16
1 2 -25 -10 -19 -9 -20 11 -9 17 9 26 8 45 -4 13 -9 31 -13 39 -10 9 3 16 1
16 -5 0 -6 -4 -11 -10 -11 -5 0 -10 -6 -10 -12 0 -7 -16 -26 -35 -41 -19 -15
-35 -32 -35 -36 0 -5 -16 -25 -35 -45 -56 -60 -37 -81 23 -26 18 17 42 30 53
30 11 0 22 7 25 15 7 17 54 21 54 5 0 -5 -6 -10 -13 -10 -22 0 -80 -67 -74
-84 6 -16 52 -23 59 -8 9 20 151 64 218 67 19 1 60 9 90 18 30 9 75 17 99 19
40 3 45 1 51 -21 5 -21 17 -27 80 -42 50 -13 92 -17 128 -13 50 6 63 -1 43
-21 -15 -17 6 -55 31 -55 28 -1 90 -28 67 -29 -37 -2 -29 -50 8 -51 16 0 115
-99 132 -132 15 -28 35 -36 46 -18 12 20 26 10 19 -12 -4 -13 -7 -32 -6 -42 0
-11 -3 -27 -8 -36 -11 -20 5 -40 31 -40 29 0 34 21 9 40 -20 15 -21 18 -5 23
9 4 30 7 46 7 24 0 29 -4 29 -24 0 -14 5 -28 10 -31 14 -8 13 7 -6 77 -8 34
-22 67 -30 75 -20 20 -18 33 5 33 11 0 23 5 26 10 3 6 1 10 -5 10 -6 0 -19 17
-28 39 -19 41 -104 141 -120 141 -6 0 -34 18 -63 40 -55 41 -69 47 -69 30 0
-12 -53 -5 -110 15 -29 10 -34 16 -32 38 3 23 -3 28 -58 48 -33 12 -67 30 -74
40 -8 12 -27 19 -57 20 -52 2 -140 18 -154 29 -25 18 -113 38 -205 46 -30 3
-71 13 -90 23 -51 27 -120 32 -162 12z m732 -206 c21 -25 -1 -37 -70 -36 -67
0 -80 5 -63 22 26 26 115 35 133 14z"/>
<path d="M10424 15178 c-4 -6 -2 -14 4 -16 7 -2 10 -13 6 -28 -3 -13 -2 -24 4
-24 10 0 22 33 22 63 0 19 -25 23 -36 5z"/>
<path d="M10390 15151 c0 -6 5 -13 10 -16 6 -3 10 1 10 9 0 9 -4 16 -10 16 -5
0 -10 -4 -10 -9z"/>
<path d="M8340 15131 c0 -11 10 -26 23 -32 12 -7 25 -17 29 -23 4 -7 13 -4 26
7 10 9 24 17 30 17 7 0 12 5 12 10 0 6 -8 10 -18 10 -10 0 -22 4 -27 9 -6 5
-25 12 -42 16 -29 6 -33 4 -33 -14z"/>
<path d="M10339 15093 c-13 -15 -12 -15 9 -4 23 12 28 21 13 21 -5 0 -15 -7
-22 -17z"/>
<path d="M10285 15080 c-11 -17 5 -32 21 -19 8 6 14 15 14 20 0 12 -27 11 -35
-1z"/>
<path d="M10334 15029 c-18 -20 -18 -21 1 -35 23 -17 35 -18 35 -1 0 6 3 22 6
35 8 29 -16 30 -42 1z"/>
<path d="M10166 14999 c-10 -17 -15 -33 -11 -37 8 -9 45 35 45 54 0 23 -15 16
-34 -17z"/>
<path d="M8632 15011 c2 -7 7 -12 11 -12 12 1 9 15 -3 20 -7 2 -11 -2 -8 -8z"/>
<path d="M10460 14980 c-8 -5 -11 -12 -7 -16 4 -4 13 -2 19 4 15 15 7 24 -12
12z"/>
<path d="M8724 14946 c-3 -9 -14 -16 -23 -16 -20 -1 -71 -29 -52 -30 8 0 11
-3 8 -7 -4 -3 0 -14 9 -24 19 -21 11 -74 -12 -83 -29 -11 -14 -27 24 -24 32 3
37 7 40 29 2 20 10 28 30 32 36 7 44 0 37 -32 -5 -22 0 -33 19 -52 31 -29 32
-39 7 -39 -11 0 -23 -5 -26 -11 -4 -6 -13 -8 -21 -5 -16 6 -64 -13 -64 -25 0
-5 -13 -6 -30 -2 -20 3 -30 1 -30 -6 0 -7 -4 -10 -9 -7 -5 4 -8 0 -7 -6 7 -38
20 -58 46 -69 17 -8 30 -23 33 -39 8 -38 78 -120 103 -120 32 0 56 -23 58 -56
1 -16 5 -34 9 -41 4 -6 3 -31 -3 -55 -14 -61 -12 -78 6 -78 11 0 14 -5 10 -16
-3 -9 -6 -20 -6 -25 0 -5 -9 -9 -20 -9 -18 0 -25 -11 -21 -33 1 -5 -7 -11 -17
-14 -11 -2 -36 -31 -57 -64 -22 -32 -47 -61 -57 -65 -22 -7 -24 -34 -3 -34 8
0 15 -4 15 -9 0 -5 -7 -11 -15 -15 -10 -3 -15 -19 -15 -46 0 -27 5 -43 15 -46
22 -9 20 -71 -2 -77 -17 -4 -17 -5 0 -6 9 0 17 -7 17 -15 0 -19 -23 -33 -28
-18 -5 17 -29 15 -35 -2 -7 -16 13 -77 28 -89 6 -4 3 -12 -7 -21 -10 -7 -18
-18 -18 -25 0 -6 8 -11 18 -11 16 -1 16 -1 0 -10 -19 -12 -17 -76 3 -126 18
-43 21 -122 5 -152 -7 -15 -11 -33 -9 -40 5 -14 -18 -72 -29 -72 -5 0 -8 -12
-9 -27 0 -25 -1 -26 -9 -8 -7 16 -9 12 -9 -18 -1 -23 -7 -40 -15 -43 -22 -9
-46 -96 -42 -152 8 -87 26 -128 85 -190 31 -33 66 -63 79 -66 32 -10 27 -26
-7 -26 -17 0 -32 -3 -34 -8 -10 -15 6 -62 21 -62 25 0 7 -10 -25 -14 -25 -4
-138 -69 -180 -106 -7 -5 -19 -10 -28 -10 -8 0 -45 -29 -83 -65 -70 -67 -86
-75 -96 -49 -3 8 -10 12 -16 9 -6 -4 -8 -11 -4 -16 3 -5 -10 -16 -28 -25 -132
-63 -213 -133 -238 -208 -16 -48 -18 -242 -4 -256 16 -16 64 -1 64 19 0 20
107 147 121 143 5 -1 12 6 16 15 9 26 32 46 83 73 25 13 53 31 63 39 15 13 17
12 17 -7 0 -19 6 -22 44 -22 30 0 46 5 50 15 4 11 14 13 37 8 24 -5 35 -2 45
11 7 10 19 16 26 13 7 -2 21 2 30 10 21 19 38 9 38 -22 0 -28 21 -37 69 -29
45 8 81 30 81 50 0 9 5 12 11 8 7 -4 20 4 30 17 13 17 34 27 78 35 33 6 58 7
55 2 -8 -13 32 -9 62 7 16 8 38 12 50 9 14 -4 23 0 27 10 6 14 55 40 102 53
27 8 68 6 145 -6 88 -14 222 -4 289 20 68 25 99 29 126 19 12 -5 74 -11 138
-14 87 -4 127 -10 161 -25 62 -29 93 -23 144 29 23 24 47 50 52 59 7 12 9 7
10 -20 0 -36 12 -49 46 -49 7 0 21 17 29 37 12 28 18 34 27 25 14 -14 58 -16
58 -2 0 5 17 0 37 -11 30 -17 40 -19 59 -9 13 7 34 9 54 5 41 -9 120 -80 120
-109 0 -35 12 -66 24 -66 6 0 26 13 43 29 24 21 33 25 37 15 3 -8 19 -14 36
-14 19 0 34 -7 42 -20 7 -11 18 -20 25 -20 15 0 17 26 3 35 -5 3 -10 14 -10
23 0 10 -9 25 -20 35 -11 9 -20 23 -20 30 0 8 -12 20 -27 27 -48 25 -83 51
-78 60 4 6 -40 50 -92 90 -6 5 -30 11 -52 14 -23 3 -45 7 -50 11 -5 3 -28 7
-50 9 -22 2 -52 14 -67 25 -17 14 -34 19 -47 15 -19 -6 -84 9 -119 27 -10 5
-29 9 -44 9 -50 0 -139 33 -181 67 -32 27 -46 32 -60 25 -37 -19 -100 -23
-114 -6 -7 8 -21 20 -31 25 -15 8 -20 5 -28 -13 -8 -22 -9 -22 -9 -2 -1 31 68
65 150 74 41 5 74 14 84 24 9 9 20 16 24 16 4 0 25 16 47 35 21 19 42 35 46
35 4 0 17 18 28 40 21 41 27 110 10 110 -5 0 -10 -3 -10 -7 0 -5 -17 -27 -38
-51 -25 -28 -44 -41 -54 -37 -17 7 -34 -10 -39 -39 -5 -24 -75 -50 -199 -72
-95 -18 -98 -19 -84 -38 8 -11 14 -35 14 -53 0 -30 -2 -33 -24 -27 -19 4 -33
-3 -66 -36 -52 -52 -64 -82 -50 -126 7 -19 18 -34 26 -34 7 0 23 -18 34 -39
35 -70 -6 -120 -58 -70 -28 25 -89 28 -136 5 -63 -30 -89 -30 -117 -2 -14 14
-42 33 -62 41 -43 18 -50 19 -41 4 8 -14 -16 -59 -32 -59 -6 0 -20 12 -29 27
-14 21 -15 30 -6 45 7 11 7 18 1 18 -5 0 -9 18 -8 40 1 21 -5 46 -12 55 -11
13 -11 20 0 41 12 21 11 29 -3 53 -9 16 -17 37 -17 48 0 16 7 18 52 15 29 -2
57 -8 63 -13 12 -12 62 -12 70 0 3 5 22 15 43 21 34 11 67 25 160 69 17 9 32
21 32 27 0 11 25 26 34 21 3 -1 15 8 29 21 42 40 120 63 207 61 45 -1 88 -7
102 -15 41 -24 49 -27 55 -20 3 3 0 13 -8 22 -8 10 -14 31 -14 48 l0 31 -130
0 c-116 0 -134 -2 -167 -22 -25 -14 -38 -18 -38 -10 -1 7 -6 5 -14 -5 -7 -10
-16 -18 -20 -18 -3 0 -25 -18 -47 -40 -23 -22 -53 -43 -68 -46 -14 -3 -33 -8
-41 -12 -29 -11 -185 -1 -196 13 -5 7 -25 15 -44 17 -25 2 -38 10 -50 33 -9
17 -29 36 -43 43 -15 7 -39 34 -52 60 -32 60 -47 84 -61 97 -18 17 -23 42 -11
54 9 10 8 15 -3 24 -20 16 -24 67 -5 67 23 0 47 31 41 54 -4 16 1 24 17 31 13
6 23 21 25 38 3 22 -1 27 -18 27 -24 0 -38 26 -21 43 8 8 14 8 21 1 16 -16
100 5 93 22 -2 7 -11 10 -18 8 -15 -6 -30 30 -20 46 3 5 13 10 21 10 8 0 14 5
14 10 0 6 -7 10 -15 10 -9 0 -18 7 -22 16 -8 21 66 92 77 73 10 -15 43 -3 37
14 -2 6 -12 11 -21 9 -10 -2 -20 4 -22 15 -7 25 -51 29 -57 5 -3 -10 -5 -7 -6
10 0 14 -4 33 -7 42 -4 10 -1 16 9 16 24 0 29 31 10 54 -41 47 -54 85 -48 130
8 48 -6 86 -30 86 -22 0 -18 17 5 23 16 4 19 11 15 42 -3 21 0 43 5 50 8 9 8
15 0 20 -5 3 -10 26 -10 51 0 24 -4 44 -10 44 -12 0 0 103 14 113 8 6 8 10 -1
13 -7 3 -9 12 -6 20 3 7 -2 17 -11 20 -10 4 -15 17 -14 39 1 39 -14 62 -45 67
-13 2 -22 10 -22 20 0 18 -55 83 -76 90 -8 3 -13 22 -13 46 -1 42 -1 42 -38
42 -27 0 -38 4 -38 15 0 8 9 15 20 15 22 0 28 37 10 70 -8 15 -5 22 12 34 12
9 17 16 10 16 -6 0 -12 8 -13 18 0 16 -1 16 -8 -1 -6 -15 -9 -12 -24 18 -9 19
-28 40 -41 45 -14 5 -26 19 -28 32 -4 28 -45 38 -54 14z m161 -297 c11 -17 -1
-21 -15 -4 -8 9 -8 15 -2 15 6 0 14 -5 17 -11z m10 -1599 c12 -13 15 -27 11
-45 -4 -14 -2 -35 4 -46 8 -14 8 -29 0 -53 -9 -30 -16 -34 -68 -46 -31 -7 -72
-16 -90 -21 -23 -5 -34 -4 -36 4 -24 91 -25 102 -11 113 18 14 19 21 3 27 -7
2 -3 3 9 1 16 -3 24 3 32 26 11 32 48 54 67 39 13 -10 44 -2 44 12 0 15 16 10
35 -11z m93 -266 c15 -10 22 -24 20 -37 -3 -20 -10 -22 -94 -25 -71 -2 -94 1
-103 12 -17 21 -5 54 22 59 56 11 134 6 155 -9z m1332 -304 c0 -5 -3 -10 -7
-10 -5 0 -18 -3 -30 -6 -13 -4 -23 -2 -23 4 0 9 9 13 53 21 4 0 7 -3 7 -9z
m55 -12 c14 -6 25 -17 25 -25 0 -22 -37 -14 -54 12 -18 27 -10 31 29 13z
m-335 -178 c0 -5 -2 -10 -4 -10 -3 0 -8 5 -11 10 -3 6 -1 10 4 10 6 0 11 -4
11 -10z m740 -100 c0 -5 -4 -10 -10 -10 -5 0 -10 5 -10 10 0 6 5 10 10 10 6 0
10 -4 10 -10z"/>
<path d="M10320 14646 c-56 -9 -102 -22 -135 -41 -27 -16 -66 -36 -85 -46 -19
-10 -60 -41 -90 -69 -56 -53 -50 -59 24 -24 34 16 50 18 41 4 -11 -17 11 -11
28 8 17 18 68 23 74 6 5 -15 -38 -57 -108 -107 -62 -43 -92 -87 -74 -106 6 -6
103 -16 235 -25 30 -2 57 -4 60 -5 6 -2 415 -14 455 -13 17 0 45 3 63 7 26 6
36 3 50 -12 14 -16 28 -19 77 -16 32 1 83 7 111 13 43 9 65 8 131 -8 43 -11
96 -31 117 -46 36 -24 66 -34 66 -20 0 3 -9 17 -20 31 -11 14 -20 34 -20 44 0
17 -146 169 -163 169 -4 0 -31 16 -60 36 -45 32 -197 109 -265 135 -13 5 -90
11 -170 14 -113 3 -166 1 -229 -12 -46 -10 -83 -21 -83 -25 0 -4 -7 -8 -16 -8
-8 0 -13 -4 -10 -9 3 -4 -6 -6 -19 -3 -16 3 -25 11 -25 22 0 13 6 17 20 13 11
-3 20 0 20 6 0 45 352 102 465 76 58 -14 121 -36 190 -69 39 -18 82 -36 97
-39 14 -4 51 -27 81 -52 31 -25 59 -45 64 -45 4 0 35 -25 68 -55 33 -30 63
-55 68 -55 17 0 4 22 -45 82 -89 108 -120 133 -199 162 -41 15 -89 34 -107 42
-19 8 -67 19 -107 25 -40 5 -84 12 -97 15 -53 12 -396 12 -478 0z m-103 -128
c-3 -8 -6 -5 -6 6 -1 11 2 17 5 13 3 -3 4 -12 1 -19z m-17 -8 c0 -5 -11 -9
-24 -8 -14 1 -22 6 -20 10 7 12 44 10 44 -2z m187 -103 c1 -34 3 -75 5 -91 2
-24 -2 -31 -26 -39 -16 -5 -31 -6 -35 -1 -11 16 -64 39 -81 36 -10 -1 -25 9
-34 23 -14 22 -15 25 -1 25 8 0 15 -5 15 -12 0 -7 13 9 29 34 26 41 107 102
121 90 3 -2 6 -31 7 -65z m343 17 c0 -26 -1 -27 -52 -20 -29 3 -63 6 -75 6
-16 0 -23 6 -23 20 0 18 7 20 75 20 74 0 75 0 75 -26z m60 -24 c0 -5 -4 -10
-10 -10 -5 0 -10 5 -10 10 0 6 5 10 10 10 6 0 10 -4 10 -10z m162 -12 c8 -7
23 -18 33 -24 25 -14 31 -40 14 -60 -26 -31 -129 -59 -129 -35 0 18 53 131 61
131 4 0 14 -6 21 -12z"/>
<path d="M10378 14563 c7 -3 16 -2 19 1 4 3 -2 6 -13 5 -11 0 -14 -3 -6 -6z"/>
<path d="M10618 14203 c-24 -6 -23 -19 1 -26 13 -3 21 1 24 14 3 11 2 18 -1
18 -4 -1 -15 -3 -24 -6z"/>
<path d="M7310 14094 c-7 -17 -7 -32 0 -45 15 -27 27 -24 33 11 12 55 -15 82
-33 34z"/>
<path d="M7480 13650 c0 -5 5 -10 10 -10 6 0 10 5 10 10 0 6 -4 10 -10 10 -5
0 -10 -4 -10 -10z"/>
<path d="M9800 13455 c0 -8 6 -15 13 -15 9 0 8 -3 -2 -9 -10 -7 -11 -13 -2
-30 8 -14 8 -21 1 -21 -5 0 -10 -5 -10 -11 0 -6 14 -9 32 -7 29 3 33 0 38 -27
4 -25 10 -31 38 -33 20 -2 32 -9 32 -18 0 -14 10 -18 43 -15 9 1 17 -3 17 -9
0 -7 6 -10 13 -7 6 2 27 -5 45 -15 35 -20 82 -24 82 -8 0 6 -9 18 -20 27 -11
10 -20 21 -20 26 0 8 -16 24 -105 105 -11 11 -47 27 -80 37 -33 10 -64 24 -68
32 -11 18 -47 17 -47 -2z"/>
<path d="M10131 13184 c0 -11 3 -14 6 -6 3 7 2 16 -1 19 -3 4 -6 -2 -5 -13z"/>
<path d="M7385 13060 c3 -5 11 -10 16 -10 6 0 7 5 4 10 -3 6 -11 10 -16 10 -6
0 -7 -4 -4 -10z"/>
<path d="M7195 13029 c-4 -6 -5 -12 -2 -15 2 -3 7 2 10 11 7 17 1 20 -8 4z"/>
<path d="M7330 13030 c0 -5 7 -10 15 -10 8 0 15 5 15 10 0 6 -7 10 -15 10 -8
0 -15 -4 -15 -10z"/>
<path d="M10192 13010 c0 -14 2 -19 5 -12 2 6 2 18 0 25 -3 6 -5 1 -5 -13z"/>
<path d="M7270 12999 c0 -5 5 -7 10 -4 6 3 10 8 10 11 0 2 -4 4 -10 4 -5 0
-10 -5 -10 -11z"/>
<path d="M7185 12980 c3 -5 8 -10 11 -10 2 0 4 5 4 10 0 6 -5 10 -11 10 -5 0
-7 -4 -4 -10z"/>
<path d="M9695 12650 c3 -5 8 -10 11 -10 2 0 4 5 4 10 0 6 -5 10 -11 10 -5 0
-7 -4 -4 -10z"/>
<path d="M8204 12349 c-15 -17 -15 -18 11 -25 29 -7 59 4 56 21 -3 21 -49 23
-67 4z"/>
<path d="M10240 12209 c0 -5 5 -7 10 -4 6 3 10 8 10 11 0 2 -4 4 -10 4 -5 0
-10 -5 -10 -11z"/>
<path d="M9757 12154 c-4 -4 -7 -14 -7 -23 0 -11 3 -12 11 -4 6 6 10 16 7 23
-2 6 -7 8 -11 4z"/>
<path d="M9220 12142 c-36 -1 -80 -10 -98 -18 -20 -9 -44 -13 -61 -9 -16 3
-47 -1 -72 -10 -24 -9 -58 -20 -74 -24 -17 -4 -39 -12 -50 -18 -31 -16 -103
-31 -112 -23 -10 10 -70 -15 -63 -27 3 -4 -6 -10 -20 -11 -14 -2 -31 -9 -39
-15 -8 -7 -24 -12 -35 -12 -12 0 -21 -6 -21 -14 0 -7 -19 -21 -42 -30 -22 -9
-49 -23 -60 -31 -10 -9 -40 -26 -67 -39 -43 -21 -46 -25 -30 -34 11 -6 21 -13
24 -16 3 -3 27 -17 53 -31 26 -14 61 -36 76 -51 15 -14 32 -24 37 -22 5 2 24
-12 42 -31 28 -30 30 -36 16 -44 -12 -7 -13 -11 -5 -16 17 -11 45 14 31 28
-15 15 -12 26 6 26 9 0 18 -9 21 -20 6 -22 38 -27 46 -7 3 7 6 4 6 -6 1 -16 7
-18 57 -11 41 5 55 4 50 -5 -5 -7 2 -11 18 -11 16 0 26 -6 26 -14 0 -11 14
-13 64 -9 57 5 71 2 116 -21 47 -25 62 -27 193 -30 78 -2 150 -7 159 -11 10
-4 32 0 50 10 75 38 120 47 198 41 41 -3 102 -1 135 4 33 6 74 13 90 15 17 2
50 10 75 19 104 34 150 46 179 46 18 0 35 8 43 19 7 10 30 24 51 32 20 7 37
17 37 21 0 4 7 8 15 8 8 0 23 8 34 19 22 22 128 86 160 96 11 3 21 11 21 16 0
6 28 23 63 39 34 16 75 40 91 53 l30 24 -24 13 c-16 8 -67 14 -142 14 -94 1
-120 5 -135 19 -22 19 -168 51 -228 49 -22 -1 -63 8 -91 19 -56 22 -135 23
-142 2 -2 -8 5 -13 17 -13 20 0 38 -17 28 -27 -3 -3 -21 0 -40 6 -27 9 -40 9
-61 -3 -23 -12 -54 -13 -115 -7 -3 1 4 7 15 15 10 8 16 18 12 22 -5 4 -16 0
-26 -10 -19 -16 -52 -13 -52 5 0 5 -5 8 -12 7 -7 -2 -12 2 -13 9 0 20 -14 26
-29 14 -11 -9 -45 -7 -153 9 -76 11 -154 19 -173 18 -19 -2 -64 -4 -100 -6z
m17 -79 c4 -9 1 -19 -5 -21 -7 -2 -12 -9 -12 -15 0 -15 -67 -21 -75 -7 -3 6 2
10 12 10 22 1 53 23 53 39 0 17 20 13 27 -6z m301 -304 c5 -12 32 -11 32 0 0
6 21 9 48 7 26 -1 52 1 58 5 5 5 22 2 37 -6 15 -7 29 -10 31 -6 7 10 66 1 66
-10 0 -5 -7 -9 -15 -9 -8 0 -15 -5 -15 -10 0 -6 -11 -8 -27 -4 -19 5 -30 2
-39 -10 -12 -17 -14 -17 -38 -1 -14 10 -26 15 -26 12 0 -3 -13 -2 -28 3 -31 8
-92 -11 -92 -30 0 -5 -16 -10 -36 -10 -21 0 -33 4 -29 10 3 6 0 10 -7 10 -28
0 -41 16 -29 38 16 29 99 37 109 11z m282 -44 c-7 -8 -17 -15 -22 -15 -11 0
14 29 26 30 5 0 3 -7 -4 -15z"/>
<path d="M10690 12100 c0 -5 4 -10 9 -10 6 0 13 5 16 10 3 6 -1 10 -9 10 -9 0
-16 -4 -16 -10z"/>
<path d="M7665 11680 c-3 -5 -1 -10 4 -10 6 0 11 5 11 10 0 6 -2 10 -4 10 -3
0 -8 -4 -11 -10z"/>
<path d="M7732 11475 c1 -10 9 -20 16 -21 7 -1 8 0 2 3 -5 2 -8 9 -5 13 3 5 0
12 -6 15 -7 5 -10 1 -7 -10z"/>
<path d="M7751 11364 c0 -11 3 -14 6 -6 3 7 2 16 -1 19 -3 4 -6 -2 -5 -13z"/>
<path d="M11282 11086 c-9 -20 -8 -24 6 -22 19 3 28 31 14 40 -5 3 -14 -5 -20
-18z"/>
<path d="M8946 10884 c-4 -9 -4 -19 -2 -22 10 -9 36 8 36 23 0 20 -26 19 -34
-1z"/>
<path d="M9760 10854 c0 -8 5 -12 10 -9 6 3 10 10 10 16 0 5 -4 9 -10 9 -5 0
-10 -7 -10 -16z"/>
<path d="M10451 10844 c0 -11 3 -14 6 -6 3 7 2 16 -1 19 -3 4 -6 -2 -5 -13z"/>
<path d="M10986 10781 c-4 -7 -5 -15 -2 -18 9 -9 19 4 14 18 -4 11 -6 11 -12
0z"/>
<path d="M12469 16769 c13 -11 27 -17 30 -13 7 7 -28 34 -43 34 -6 -1 0 -10
13 -21z"/>
<path d="M12720 15294 c0 -8 5 -12 10 -9 6 4 8 11 5 16 -9 14 -15 11 -15 -7z"/>
<path d="M12618 14228 c-33 -27 -27 -68 11 -68 8 0 23 -8 34 -17 19 -18 20
-17 13 22 -10 52 -35 80 -58 63z"/>
<path d="M12615 14059 c-22 -11 -57 -38 -78 -60 -20 -22 -42 -37 -47 -34 -6 3
-10 0 -10 -8 0 -9 9 -12 28 -10 44 6 56 -8 42 -51 -10 -31 -9 -39 8 -63 28
-41 54 -112 59 -163 3 -25 9 -50 15 -57 5 -7 11 -29 12 -51 2 -21 8 -48 14
-59 14 -26 22 -375 11 -493 -17 -177 -18 -210 -10 -210 8 0 22 39 42 120 26
105 42 281 34 380 -13 144 -6 269 16 320 35 80 35 118 -2 175 -24 37 -32 60
-30 87 1 21 -3 55 -8 75 -36 141 -31 136 -96 102z"/>
<path d="M12842 13810 c0 -14 2 -19 5 -12 2 6 2 18 0 25 -3 6 -5 1 -5 -13z"/>
<path d="M12839 13228 c-2 -7 -1 -42 2 -78 l6 -65 1 78 c2 73 -1 93 -9 65z"/>
<path d="M12811 12914 c0 -11 3 -14 6 -6 3 7 2 16 -1 19 -3 4 -6 -2 -5 -13z"/>
<path d="M12605 12801 c-3 -5 -1 -12 5 -16 5 -3 10 1 10 9 0 18 -6 21 -15 7z"/>
<path d="M12596 12761 c-4 -7 -5 -15 -2 -18 9 -9 19 4 14 18 -4 11 -6 11 -12
0z"/>
<path d="M6940 11410 c0 -5 5 -10 10 -10 6 0 10 5 10 10 0 6 -4 10 -10 10 -5
0 -10 -4 -10 -10z"/>
<path d="M7095 11041 c-5 -17 -10 -19 -20 -11 -9 8 -17 6 -29 -5 -23 -23 -12
-34 34 -33 44 0 54 13 35 48 l-13 23 -7 -22z"/>
<path d="M6895 11010 c-3 -4 2 -11 11 -14 22 -8 34 -7 34 3 0 12 -39 21 -45
11z"/>
<path d="M12037 10844 c-8 -8 3 -66 14 -79 5 -5 8 9 7 33 -1 42 -9 58 -21 46z"/>
<path d="M12071 10753 c0 -7 -4 -12 -8 -12 -21 3 -32 -3 -38 -21 -4 -11 -11
-17 -17 -14 -8 5 -9 -1 -4 -17 10 -30 10 -43 1 -94 -5 -30 -4 -36 4 -25 8 11
9 7 5 -18 -5 -25 -3 -32 7 -30 9 2 13 -5 11 -21 -1 -17 2 -22 13 -17 12 4 15
-3 13 -40 -1 -26 -7 -48 -14 -51 -17 -6 -18 -133 -1 -133 7 0 18 5 25 12 9 9
13 7 17 -5 14 -46 17 -52 22 -39 7 18 21 15 26 -5 4 -14 5 -14 6 -3 0 9 -8 40
-18 70 -11 30 -16 57 -12 60 9 6 8 34 -4 198 -4 61 -12 112 -16 112 -5 0 -9
-8 -9 -17 0 -11 -3 -14 -10 -7 -6 6 -6 23 1 47 6 21 8 48 6 60 -2 12 -5 16 -6
10z m16 -295 c-3 -8 -6 -5 -6 6 -1 11 2 17 5 13 3 -3 4 -12 1 -19z m-1 -45
c-10 -10 -19 5 -10 18 6 11 8 11 12 0 2 -7 1 -15 -2 -18z"/>
<path d="M11900 10630 c0 -5 5 -10 10 -10 6 0 10 5 10 10 0 6 -4 10 -10 10 -5
0 -10 -4 -10 -10z"/>
<path d="M11657 10210 c15 -16 63 -23 63 -9 0 5 -6 9 -12 9 -7 0 -24 3 -38 6
-20 6 -23 4 -13 -6z"/>
<path d="M12137 10138 c-8 -84 -59 -268 -74 -268 -8 0 -10 -11 -6 -35 4 -23 2
-35 -6 -35 -6 0 -11 -18 -12 -42 0 -33 -2 -38 -9 -23 -6 14 -9 16 -9 4 -1 -15
-57 -130 -99 -202 -12 -21 -22 -49 -22 -63 0 -33 -24 -78 -55 -102 -14 -11
-25 -29 -25 -41 0 -17 -47 -86 -123 -181 -21 -26 -87 -157 -87 -173 0 -8 -9
-25 -19 -39 -11 -13 -23 -36 -26 -51 -4 -14 -13 -28 -21 -31 -8 -3 -14 -15
-14 -26 0 -11 -6 -20 -13 -20 -6 0 -31 -17 -54 -38 -36 -33 -43 -46 -49 -93
-7 -60 -19 -80 -40 -72 -9 3 -17 -9 -26 -41 -7 -28 -19 -48 -30 -52 -10 -3
-18 -12 -18 -20 0 -8 -9 -23 -20 -34 -24 -24 -25 -27 -2 -33 13 -4 12 -5 -5
-6 -15 -1 -20 -6 -16 -19 4 -17 -51 -77 -71 -77 -5 0 -14 -13 -19 -30 -12 -36
-42 -77 -51 -68 -3 3 -6 -1 -6 -11 0 -9 -7 -19 -15 -22 -8 -4 -15 -11 -15 -18
0 -6 -9 -17 -21 -24 -13 -8 -19 -20 -16 -31 3 -14 0 -17 -14 -14 -15 4 -18 1
-13 -11 3 -9 10 -16 15 -16 5 0 9 -4 9 -9 0 -5 -9 -7 -19 -4 -28 7 -50 -35
-53 -104 -1 -17 -4 -31 -7 -30 -4 1 -22 -7 -43 -17 -38 -18 -53 -47 -35 -65 8
-8 8 -11 -1 -11 -7 0 -12 -5 -12 -11 0 -17 43 1 73 32 16 15 26 33 22 39 -3 5
0 10 8 10 8 0 27 19 42 43 15 23 41 58 57 77 16 19 73 96 125 170 53 74 106
146 119 161 13 14 24 29 24 33 0 5 31 49 68 100 291 389 523 805 636 1136 72
210 96 317 103 458 6 121 0 152 -10 50z m-1140 -2170 c-3 -8 -6 -5 -6 6 -1 11
2 17 5 13 3 -3 4 -12 1 -19z m-77 -118 c0 -5 -2 -10 -4 -10 -3 0 -8 5 -11 10
-3 6 -1 10 4 10 6 0 11 -4 11 -10z"/>
<path d="M12260 10194 c0 -11 70 -185 90 -225 19 -35 46 -151 71 -294 6 -38
27 -124 46 -190 31 -109 34 -136 40 -295 5 -151 3 -193 -16 -305 -25 -149 -76
-366 -119 -505 -16 -52 -44 -162 -62 -245 -18 -82 -40 -179 -50 -215 -26 -91
-83 -397 -96 -510 -15 -136 -49 -214 -124 -291 -63 -64 -130 -137 -130 -142 0
-3 11 -4 24 -3 13 2 44 23 69 47 89 88 107 101 107 81 0 -15 -60 -444 -74
-532 -7 -42 -46 -261 -60 -340 -8 -41 -35 -190 -61 -330 -25 -140 -64 -347
-85 -460 -22 -113 -67 -353 -99 -535 -124 -681 -133 -730 -213 -1125 -74 -365
-93 -462 -118 -605 -40 -238 -159 -785 -210 -974 -36 -137 -65 -280 -91 -461
-18 -129 -55 -306 -124 -600 -12 -52 -50 -219 -84 -370 -86 -380 -164 -696
-186 -752 -7 -17 197 -18 4201 -18 l4209 0 -1 293 c-1 160 -6 328 -12 372 -6
44 -14 109 -17 145 -10 117 -17 164 -35 240 -10 41 -24 120 -30 175 -6 55 -27
165 -47 245 -34 140 -35 154 -44 415 -11 375 -23 460 -99 700 -34 110 -61 249
-70 365 -14 178 -29 296 -45 345 -7 22 -19 73 -25 113 -11 68 -10 79 17 180
28 106 28 111 27 382 0 303 -2 315 -69 455 -19 39 -52 117 -75 175 -63 158
-126 299 -181 409 -27 55 -49 110 -49 123 0 13 20 57 44 99 92 157 96 223 30
493 -27 112 -31 239 -14 436 22 236 -32 579 -119 765 -17 38 -54 90 -86 124
-58 61 -156 121 -196 121 -13 0 -69 25 -124 57 -55 31 -163 86 -240 123 -137
65 -170 80 -460 194 -77 30 -169 68 -205 84 -114 52 -378 148 -610 222 -482
153 -630 217 -1016 436 -237 134 -554 283 -829 391 -89 35 -488 172 -575 198
-25 7 -92 27 -150 44 -129 37 -407 129 -435 143 -27 15 -64 45 -172 145 -50
46 -104 94 -120 106 -36 27 -135 120 -289 270 -108 105 -131 135 -215 270 -73
118 -113 170 -178 235 -75 74 -141 124 -141 106z m3488 -7133 c3 -27 -5 -47
-36 -90 -21 -31 -64 -106 -95 -167 -31 -61 -67 -120 -79 -131 -27 -24 -204
-99 -378 -158 -123 -42 -240 -73 -430 -113 -95 -21 -122 -25 -495 -82 -436
-66 -1070 -170 -1213 -200 -55 -11 -112 -20 -127 -20 -24 0 -27 3 -22 28 8 43
167 456 181 470 7 7 39 19 72 27 140 32 613 109 919 150 602 80 911 144 1365
280 132 40 153 44 240 42 l95 -2 3 -34z"/>
<path d="M11340 9950 c0 -13 11 -13 30 0 12 8 11 10 -7 10 -13 0 -23 -4 -23
-10z"/>
<path d="M11165 9620 c-3 -5 1 -10 9 -10 9 0 16 5 16 10 0 6 -4 10 -9 10 -6 0
-13 -4 -16 -10z"/>
<path d="M10979 9577 c-9 -12 -20 -33 -24 -47 -7 -25 -7 -25 12 -5 10 11 22
28 26 38 3 9 11 17 17 17 6 0 8 5 5 10 -9 15 -18 12 -36 -13z"/>
<path d="M7592 9516 c-7 -19 -44 -91 -82 -161 -39 -71 -70 -131 -70 -134 0 -4
-60 -66 -134 -140 l-133 -133 -119 -23 c-130 -26 -403 -99 -443 -119 -14 -7
-66 -25 -116 -40 -49 -15 -112 -36 -140 -46 -27 -10 -90 -32 -140 -50 -84 -31
-221 -86 -325 -132 -75 -34 -439 -217 -708 -357 -139 -72 -255 -131 -258 -131
-2 0 -102 -47 -222 -104 -292 -140 -428 -201 -614 -280 l-156 -67 -174 -9
c-358 -19 -623 -68 -772 -141 -77 -38 -82 -40 -128 -29 -56 14 -94 7 -170 -31
-120 -60 -220 -244 -268 -489 -29 -150 -53 -234 -100 -340 -21 -48 -61 -148
-89 -223 -46 -121 -51 -144 -51 -214 0 -78 12 -128 52 -213 38 -83 88 -225 95
-268 l6 -42 -92 -90 c-96 -94 -161 -184 -208 -291 -61 -134 -71 -185 -77 -384
-5 -184 -33 -295 -105 -430 -66 -123 -81 -170 -92 -305 -7 -87 -29 -194 -90
-440 -44 -179 -98 -381 -119 -450 -82 -270 -99 -342 -115 -505 -17 -179 -19
-188 -70 -335 -82 -234 -90 -346 -41 -550 65 -270 61 -306 -73 -630 -91 -222
-101 -269 -111 -520 -8 -190 -31 -428 -44 -449 -5 -8 -46 -198 -46 -213 0 -4
1625 -8 3611 -8 3035 0 3610 2 3606 14 -18 46 -100 375 -126 501 -29 141 -39
202 -76 436 -8 52 -24 133 -35 180 -59 242 -121 589 -135 754 -3 44 -15 139
-26 210 -47 308 -60 407 -74 569 -8 94 -17 182 -20 196 -5 26 -29 248 -45 426
-6 55 -14 181 -20 280 -10 176 -25 373 -55 729 -8 99 -20 266 -25 370 -6 105
-17 278 -25 385 -22 292 -34 573 -40 885 -15 837 -16 967 -10 1042 6 77 8 83
29 83 30 0 30 29 -1 36 -21 6 -23 11 -23 71 0 35 8 99 18 141 25 113 19 200
-24 332 -32 98 -35 117 -30 182 3 40 10 332 15 648 5 316 15 613 21 660 5 47
15 128 20 180 6 52 16 124 24 160 15 71 7 101 -12 46z"/>
<path d="M10910 9486 c-5 -14 -17 -26 -26 -26 -9 0 -29 -9 -44 -20 -16 -11
-35 -17 -43 -14 -15 5 -64 -33 -54 -42 10 -10 80 9 98 27 11 11 22 19 25 19 3
0 21 15 41 34 23 21 32 36 24 40 -6 4 -15 -3 -21 -18z"/>
<path d="M11870 9449 c0 -5 5 -7 10 -4 6 3 10 8 10 11 0 2 -4 4 -10 4 -5 0
-10 -5 -10 -11z"/>
<path d="M10620 9410 c0 -5 5 -10 10 -10 6 0 10 5 10 10 0 6 -4 10 -10 10 -5
0 -10 -4 -10 -10z"/>
<path d="M10695 9320 c3 -5 17 -10 30 -10 13 0 27 5 30 10 4 6 -8 10 -30 10
-22 0 -34 -4 -30 -10z"/>
<path d="M8250 9252 c0 -5 9 -18 20 -30 11 -12 20 -31 20 -42 0 -20 1 -20 16
-5 15 14 15 20 3 43 -8 15 -18 30 -24 34 -13 10 -35 10 -35 0z"/>
<path d="M8031 9213 c0 -5 4 -17 9 -28 8 -18 9 -17 9 8 1 15 -3 27 -9 27 -5 0
-10 -3 -9 -7z"/>
<path d="M8810 9050 c0 -5 7 -10 15 -10 8 0 15 5 15 10 0 6 -7 10 -15 10 -8 0
-15 -4 -15 -10z"/>
<path d="M10940 7980 c0 -5 5 -10 10 -10 6 0 10 5 10 10 0 6 -4 10 -10 10 -5
0 -10 -4 -10 -10z"/>
<path d="M8525 7926 c-5 -11 -3 -21 6 -26 15 -10 36 -1 22 9 -6 3 -12 13 -15
21 -5 12 -7 12 -13 -4z"/>
<path d="M7746 7853 c-11 -130 -8 -239 6 -225 7 7 20 12 30 12 16 0 18 10 20
78 0 42 0 85 0 95 -1 10 5 34 13 54 23 55 20 63 -24 63 l-38 0 -7 -77z"/>
<path d="M8500 7888 c0 -9 4 -19 9 -23 8 -5 87 -160 104 -205 4 -10 6 -8 6 7
1 12 -3 24 -8 27 -8 5 -25 64 -22 79 0 4 -4 7 -10 7 -6 0 -9 9 -6 20 6 23 -16
74 -27 62 -4 -3 -16 4 -26 18 -15 20 -20 21 -20 8z"/>
<path d="M10845 7800 c-3 -5 1 -10 10 -10 9 0 13 5 10 10 -3 6 -8 10 -10 10
-2 0 -7 -4 -10 -10z"/>
<path d="M10791 7691 c-11 -11 -23 -16 -27 -13 -4 4 -4 -1 -1 -10 4 -10 3 -18
-2 -18 -10 0 -33 -51 -26 -58 3 -3 5 0 5 6 0 6 13 23 28 39 29 28 57 73 47 73
-3 0 -14 -9 -24 -19z"/>
<path d="M8630 7656 c0 -22 3 -27 11 -19 8 8 8 16 0 30 -9 16 -10 14 -11 -11z"/>
<path d="M8652 7595 c0 -16 2 -22 5 -12 2 9 2 23 0 30 -3 6 -5 -1 -5 -18z"/>
<path d="M8670 7552 c0 -4 11 -19 24 -34 14 -14 22 -29 19 -32 -4 -3 -1 -6 5
-6 18 0 15 14 -8 40 -11 13 -20 27 -20 32 0 4 -4 8 -10 8 -5 0 -10 -3 -10 -8z"/>
<path d="M7670 7280 c-10 -25 -10 -35 3 -62 9 -18 18 -45 22 -60 4 -15 13 -32
20 -38 23 -19 25 15 4 81 -11 34 -20 73 -21 86 -3 31 -13 29 -28 -7z"/>
<path d="M10764 7249 c-23 -11 -50 -29 -60 -41 -19 -20 -19 -21 6 -13 24 7
120 65 120 72 0 9 -29 1 -66 -18z"/>
<path d="M10389 7002 c-3 -20 -2 -29 4 -23 5 5 7 19 5 32 -3 20 -5 19 -9 -9z"/>
<path d="M8942 6961 c-9 -6 -14 -35 -15 -91 l-2 -83 38 -24 c61 -39 83 -44 83
-22 0 13 -7 19 -24 19 -31 0 -55 54 -62 142 -4 53 -8 66 -18 59z m-5 -83 c-3
-8 -6 -5 -6 6 -1 11 2 17 5 13 3 -3 4 -12 1 -19z"/>
<path d="M10340 6865 c-6 -8 -14 -33 -17 -55 -4 -26 -14 -47 -28 -59 -26 -19
-34 -49 -21 -70 6 -10 2 -20 -14 -33 -12 -10 -17 -18 -11 -18 7 0 9 -5 4 -12
-10 -16 -11 -78 0 -78 12 0 8 -21 -9 -37 -14 -14 -16 -14 -21 6 -3 13 -12 21
-22 19 -26 -5 -24 -33 5 -62 21 -20 25 -29 16 -38 -9 -9 -12 -9 -12 2 0 17
-13 5 -16 -15 -1 -8 2 -13 7 -9 5 3 9 -2 9 -11 0 -9 -4 -14 -9 -11 -5 3 -12
-1 -15 -10 -3 -8 -2 -12 4 -9 11 7 14 -8 3 -18 -9 -10 -10 -106 -1 -100 5 2 8
-1 8 -7 0 -7 -6 -10 -14 -7 -10 4 -14 -5 -14 -36 0 -23 -1 -51 -2 -62 -1 -11
3 -35 8 -53 10 -30 9 -34 -13 -42 -17 -6 -22 -14 -18 -29 6 -22 -39 -71 -65
-71 -11 0 -12 -3 -4 -13 24 -28 -28 -55 -61 -32 -16 11 -22 26 -22 53 0 27 -5
38 -17 40 -12 2 -18 -3 -18 -14 0 -13 -5 -10 -21 10 -17 22 -19 29 -9 41 10
12 16 13 27 4 18 -16 34 0 27 26 -4 15 -15 21 -48 23 -31 2 -44 -1 -43 -10 2
-50 -3 -53 -30 -15 -27 38 -82 72 -104 65 -7 -2 11 -28 40 -58 29 -30 46 -45
39 -32 -7 12 -16 22 -20 22 -5 0 -8 10 -8 23 0 19 3 17 21 -13 12 -19 23 -42
24 -50 0 -8 23 -60 49 -115 26 -55 52 -110 57 -122 11 -30 23 -29 48 3 47 60
110 124 123 124 11 0 11 2 0 9 -11 6 -11 10 0 18 7 6 21 12 31 14 27 6 136
102 143 126 5 17 -8 45 -50 109 -55 85 -72 143 -46 159 6 3 10 13 10 22 0 8
18 35 40 60 44 51 65 109 56 159 -6 27 21 211 40 282 7 25 2 28 -16 7z m-285
-1005 c3 -5 2 -10 -4 -10 -5 0 -13 5 -16 10 -3 6 -2 10 4 10 5 0 13 -4 16 -10z"/>
<path d="M10166 6294 c-4 -9 -4 -19 -1 -22 2 -3 7 3 11 12 4 9 4 19 1 22 -2 3
-7 -3 -11 -12z"/>
<path d="M10056 6285 c-20 -20 -21 -36 -2 -29 15 6 30 34 22 41 -2 2 -11 -3
-20 -12z"/>
<path d="M9796 6245 c4 -8 1 -22 -6 -30 -7 -8 -8 -15 -2 -15 16 0 35 29 28 45
-3 8 -10 15 -15 15 -6 0 -8 -7 -5 -15z"/>
<path d="M10154 6242 c-9 -13 -9 -22 0 -34 10 -14 12 -11 12 18 0 19 0 34 -1
34 0 0 -5 -8 -11 -18z"/>
<path d="M9738 6133 c7 -3 16 -2 19 1 4 3 -2 6 -13 5 -11 0 -14 -3 -6 -6z"/>
</g>
</svg>
